<?xml version="1.0" encoding="UTF-8" standalone="no"?>
<!-- Created with Inkscape (http://www.inkscape.org/) -->

<svg
   xmlns:dc="http://purl.org/dc/elements/1.1/"
   xmlns:cc="http://creativecommons.org/ns#"
   xmlns:rdf="http://www.w3.org/1999/02/22-rdf-syntax-ns#"
   xmlns:svg="http://www.w3.org/2000/svg"
   xmlns="http://www.w3.org/2000/svg"
   xmlns:sodipodi="http://sodipodi.sourceforge.net/DTD/sodipodi-0.dtd"
   xmlns:inkscape="http://www.inkscape.org/namespaces/inkscape"
   width="178.81429mm"
   height="158.64899mm"
   viewBox="0 0 178.81428 158.64899"
   version="1.1"
   id="svg8"
   sodipodi:docname="gray_squirrel.svg"
   inkscape:version="0.92.4 (5da689c313, 2019-01-14)"
   inkscape:export-filename="C:\Users\mfidino\Documents\GitHub\uwin_ms_2\plots\im\gray_squirrel.png"
   inkscape:export-xdpi="600"
   inkscape:export-ydpi="600">
  <defs
     id="defs2" />
  <sodipodi:namedview
     id="base"
     pagecolor="#ffffff"
     bordercolor="#666666"
     borderopacity="1.0"
     inkscape:pageopacity="0.0"
     inkscape:pageshadow="2"
     inkscape:zoom="1.4"
     inkscape:cx="449.07013"
     inkscape:cy="313.12066"
     inkscape:document-units="mm"
     inkscape:current-layer="g1618"
     showgrid="false"
     inkscape:window-width="1920"
     inkscape:window-height="1137"
     inkscape:window-x="-8"
     inkscape:window-y="-8"
     inkscape:window-maximized="1"
     inkscape:pagecheckerboard="true"
     fit-margin-top="0.1"
     fit-margin-left="0.1"
     fit-margin-bottom="0.1"
     fit-margin-right="0.1" />
  <metadata
     id="metadata5">
    <rdf:RDF>
      <cc:Work
         rdf:about="">
        <dc:format>image/svg+xml</dc:format>
        <dc:type
           rdf:resource="http://purl.org/dc/dcmitype/StillImage" />
        <dc:title></dc:title>
      </cc:Work>
    </rdf:RDF>
  </metadata>
  <g
     inkscape:label="Layer 1"
     inkscape:groupmode="layer"
     id="layer1"
     transform="translate(-18.919242,-56.957225)">
    <g
       id="g1618"
       transform="rotate(-10,111.49303,136.16734)">
      <path
         transform="scale(0.26458333)"
         inkscape:connector-curvature="0"
         id="path1484"
         d="m 669.16145,433.18626 c -1.64093,-0.28718 -6.02699,-1.88795 -9.04724,-3.30195 -5.50376,-2.57673 -8.54679,-5.60897 -9.48536,-9.45171 -0.20271,-0.82995 -0.43542,-2.75906 -0.51713,-4.28692 -0.13076,-2.44484 -0.0887,-2.89904 0.35086,-3.78807 l 0.49942,-1.01015 -0.18105,1.01015 c -0.26099,1.45614 -0.21211,4.24698 0.11348,6.47923 0.57458,3.9394 3.62445,7.82525 7.66042,9.76015 3.26459,1.56509 5.49014,1.92089 10.90597,1.74354 3.79356,-0.12422 4.81876,-0.074 6.80669,0.33326 1.28724,0.26373 2.37783,0.44211 2.42353,0.39641 0.0457,-0.0457 -0.0578,-0.60971 -0.2299,-1.25335 -0.26955,-1.00784 -0.25099,-1.35431 0.13375,-2.49622 0.64856,-1.92496 0.48483,-8.98081 -0.28093,-12.10684 -0.64851,-2.64737 -1.03376,-3.43382 -2.27124,-4.63659 -1.25904,-1.22371 -3.04164,-2.23399 -7.06554,-4.00434 l -3.341,-1.46991 -3.6038,0.16253 c -3.19725,0.14419 -3.53257,0.12186 -2.97245,-0.19793 1.73017,-0.9878 3.93122,-1.47787 7.19733,-1.60251 l 3.283,-0.12528 2.02031,1.32427 c 2.58989,1.69762 4.81922,3.97888 6.73675,6.8937 2.22434,3.38118 3.09276,5.26965 3.81369,8.29328 0.73988,3.10308 0.72703,3.22356 -0.8307,7.78516 -0.54546,1.5973 -1.06768,3.55763 -1.1605,4.35628 l -0.16876,1.45209 -4.82659,-0.0297 c -2.65462,-0.0163 -5.33797,-0.1192 -5.96301,-0.22858 z"
         style="opacity:1;fill:#ffffff;fill-opacity:1;stroke:#ffffff;stroke-width:0.28634247;stroke-linecap:butt;stroke-linejoin:miter;stroke-miterlimit:4;stroke-dasharray:none;stroke-dashoffset:0;stroke-opacity:1" />
      <path
         transform="scale(0.26458333)"
         inkscape:connector-curvature="0"
         id="path1478"
         d="m 710.38092,523.03649 c -0.76631,-0.92335 -3.97986,-2.0466 -8.23619,-2.87884 -4.38745,-0.85788 -8.09169,-1.98359 -7.8443,-2.38386 0.182,-0.29449 3.2889,-1.2442 4.0703,-1.2442 0.57237,0 0.61338,-0.0813 0.54161,-1.07329 l -0.0777,-1.07328 -1.01015,0.0831 c -1.41405,0.11635 -4.44156,1.1801 -6.75753,2.37433 -2.06757,1.06615 -4.2076,1.45388 -6.08285,1.10208 -1.26256,-0.23686 -8.18169,-5.7032 -7.86583,-6.21427 0.0649,-0.10509 0.85256,-0.32965 1.75025,-0.49904 2.19085,-0.41338 3.98742,-0.17478 8.72817,1.15918 5.81998,1.63764 6.79841,1.7329 12.89422,1.25535 6.32498,-0.4955 7.81524,-0.34164 8.91517,0.92045 1.10907,1.27257 2.44768,4.257 2.5971,5.79024 0.11882,1.21926 0.0607,1.43577 -0.5913,2.20263 -0.61728,0.72606 -0.76811,0.79619 -1.03101,0.47941 z"
         style="opacity:1;fill:#ffffff;fill-opacity:1;stroke:#ffffff;stroke-width:0.28634247;stroke-linecap:butt;stroke-linejoin:miter;stroke-miterlimit:4;stroke-dasharray:none;stroke-dashoffset:0;stroke-opacity:1" />
      <path
         transform="scale(0.26458333)"
         inkscape:connector-curvature="0"
         id="path1460"
         d="m 477.23632,792.78739 c -2.34458,-0.50521 -2.595,-0.51362 -4.72238,-0.15854 -2.11664,0.35329 -2.4772,0.34228 -6.23669,-0.19045 -3.03007,-0.42937 -5.21172,-0.56795 -9.06676,-0.57592 l -5.07657,-0.0105 -8.68676,-1.75432 c -8.84135,-1.78555 -11.91245,-2.55477 -14.66449,-3.67303 -5.08205,-2.06501 -8.22593,-5.4055 -9.16117,-9.73406 -1.45596,-6.73858 2.29401,-10.82946 12.68802,-13.84148 1.42994,-0.41438 2.88262,-0.93867 3.22818,-1.16509 0.73336,-0.48051 0.59548,-0.55729 4.79809,2.67182 3.98726,3.06364 3.83322,3.00092 7.98456,3.25088 4.07837,0.24557 4.62125,0.34914 10.01853,1.9113 6.26194,1.81243 8.50131,2.19618 12.0294,2.06145 3.36674,-0.12858 4.37152,-0.40848 6.9448,-1.93462 0.90283,-0.53544 2.05112,-1.10241 2.55178,-1.25994 0.50064,-0.15752 1.35327,-0.6656 1.89471,-1.12905 0.54144,-0.46345 1.38188,-0.92122 1.86764,-1.01726 l 0.88321,-0.17461 -0.63135,0.52105 c -1.51429,1.24977 -5.88653,4.01659 -8.22415,5.20438 -4.00803,2.03656 -8.53421,3.29687 -13.57122,3.77888 l -1.71859,0.16445 0.0771,0.92543 0.0771,0.92542 2.06543,-0.0547 c 2.40536,-0.0637 6.23511,-0.79687 9.07252,-1.7369 3.34979,-1.10977 7.02904,-3.03196 11.15573,-5.82822 2.16528,-1.4672 4.96716,-3.16557 6.22641,-3.77415 1.25926,-0.60859 2.82815,-1.39539 3.48642,-1.74845 0.65828,-0.35306 2.13562,-0.88418 3.283,-1.18025 l 2.08613,-0.53832 2.14451,0.82805 c 3.43852,1.32771 4.25737,1.84003 7.32567,4.58339 4.23546,3.78691 16.66752,16.24803 16.66752,16.70648 0,0.33181 -0.16428,0.35347 -1.07329,0.14151 -1.67662,-0.39096 -5.03251,-0.0472 -9.02824,0.92479 -2.01399,0.48992 -3.88909,0.89112 -4.16688,0.89154 -0.33257,5.1e-4 -1.3014,-0.9421 -2.83662,-2.75987 -2.5985,-3.07673 -3.513,-3.86598 -4.99206,-4.3083 -0.55895,-0.16715 -3.32257,-0.36157 -6.18718,-0.43525 l -5.17704,-0.13317 -2.58653,-2.48842 c -1.42259,-1.36864 -2.87689,-2.5613 -3.23178,-2.65037 -1.54304,-0.38728 -4.57304,0.67988 -12.11189,4.2658 -2.50013,1.1892 -5.73893,2.60865 -7.19734,3.15432 -2.65082,0.99181 -4.7892,1.99064 -5.61596,2.62318 -0.41112,0.31455 -0.39946,0.38589 0.18413,1.12644 l 0.62305,0.79062 1.83618,-0.95058 c 1.0099,-0.52281 2.85896,-1.31917 4.10902,-1.76967 1.25006,-0.4505 4.37522,-1.81063 6.9448,-3.02251 4.68197,-2.20815 8.59843,-3.84627 9.92772,-4.15242 0.64796,-0.14923 0.97044,0.0968 3.68614,2.81251 1.63683,1.63683 4.35618,4.56704 6.04299,6.51158 l 3.06693,3.53554 -1.07096,0.46094 c -0.58903,0.25353 -2.09374,0.74154 -3.34381,1.08449 -1.25006,0.34294 -3.37281,0.96963 -4.71722,1.39264 -1.45609,0.45815 -2.65785,0.70135 -2.97237,0.60153 -0.29039,-0.0922 -1.06552,0.003 -1.7225,0.21207 -1.99031,0.63257 -2.60932,0.64307 -5.18561,0.0879 z"
         style="opacity:1;fill:#ffffff;fill-opacity:1;stroke:#ffffff;stroke-width:0.47723743;stroke-linecap:butt;stroke-linejoin:miter;stroke-miterlimit:4;stroke-dasharray:none;stroke-dashoffset:0;stroke-opacity:1" />
      <g
         style="stroke-width:0.5;stroke-miterlimit:4;stroke-dasharray:none"
         transform="rotate(-10,170.37729,214.84852)"
         id="g1351">
        <path
           style="fill:none;stroke:#000000;stroke-width:0.7;stroke-linecap:butt;stroke-linejoin:miter;stroke-miterlimit:4;stroke-dasharray:none;stroke-opacity:1"
           d="m 124.22659,197.2237 c 2.69181,0.3537 4.57024,-0.26531 6.67601,-1.3182 0.66155,-0.33077 1.43701,-0.37832 2.04108,-0.68035 0.17149,-0.0858 1.71196,-0.32911 1.9135,-0.12757 0.26207,0.26207 1.04055,0.57281 1.44576,0.97801 0.60437,0.60438 4.16988,5.49347 4.37979,6.12322"
           id="path938-8"
           inkscape:connector-curvature="0" />
        <path
           style="fill:none;stroke:#000000;stroke-width:0.7;stroke-linecap:butt;stroke-linejoin:miter;stroke-miterlimit:4;stroke-dasharray:none;stroke-opacity:1"
           d="m 132.17827,195.1826 c -0.0242,-0.0935 1.52531,-0.17938 0,0"
           id="path940-7"
           inkscape:connector-curvature="0" />
        <path
           style="fill:none;stroke:#000000;stroke-width:0.7;stroke-linecap:butt;stroke-linejoin:miter;stroke-miterlimit:4;stroke-dasharray:none;stroke-opacity:1"
           d="m 131.92314,199.5199 c 0.91608,0.2136 2.12667,0.29794 2.97656,0.72288 0.41254,0.20627 1.51365,2.57671 2.04107,3.10413 0.45579,0.45579 2.74503,-0.0118 3.14666,-0.21261 0.34224,-0.17112 0.5953,-0.85628 0.5953,-0.93549"
           id="path942-0"
           inkscape:connector-curvature="0" />
        <path
           style="fill:none;stroke:#000000;stroke-width:0.7;stroke-linecap:butt;stroke-linejoin:miter;stroke-miterlimit:4;stroke-dasharray:none;stroke-opacity:1"
           d="m 132.17827,195.1826 c 0.94078,-0.13448 2.25576,-0.72216 3.27422,-0.38268 1.17802,0.39267 4.88894,3.69718 5.40034,4.71998 0.35946,0.71893 -0.95231,1.23315 -1.02054,1.23315"
           id="path948-6"
           inkscape:connector-curvature="0" />
        <path
           style="fill:none;stroke:#000000;stroke-width:0.7;stroke-linecap:butt;stroke-linejoin:miter;stroke-miterlimit:4;stroke-dasharray:none;stroke-opacity:1"
           d="m 123.71633,199.39234 c 0.79604,-0.38366 1.74961,-0.42677 2.59386,-0.63783 0.68309,-0.17078 3.70972,-1.12171 4.16719,-0.89297 0.60974,0.30486 3.6144,5.48528 3.6144,5.82555 0,0.28555 -0.27102,0.44111 -0.3827,0.55279 -0.34178,0.14819 -0.72492,0.34222 -0.97802,0.59531 -0.0493,0.0493 -0.44129,0 -0.51026,0 -1.12236,0 -2.34801,-0.6471 -3.06161,-1.36071 -0.18495,-0.18495 -0.32986,-0.56889 -0.55279,-0.68036 -0.38385,-0.19192 -0.81258,-0.29998 -1.23314,-0.51026 -0.29366,-0.14683 -1.65199,-0.10135 -1.95604,0 -0.72408,0.24136 -1.87489,-0.49806 -2.68495,-0.49806 -1.12854,-0.78949 -3.21693,-1.23713 -4.33123,-1.35872"
           id="path952-2"
           inkscape:connector-curvature="0"
           sodipodi:nodetypes="cccsccsccssc" />
        <path
           style="fill:none;stroke:#000000;stroke-width:0.7;stroke-linecap:butt;stroke-linejoin:miter;stroke-miterlimit:4;stroke-dasharray:none;stroke-opacity:1"
           d="m 137.06834,203.517 c 0.10171,0.21202 0.50673,1.23669 0.25513,1.48829 -0.0428,0.0428 -2.12716,0.12651 -2.16864,0.085 -0.1385,-0.13851 -0.33373,-0.29122 -0.51027,-0.46775 -0.16016,-0.16017 -0.27779,-0.40536 -0.42521,-0.55279 -0.006,-0.006 -0.0671,-0.22564 -0.085,-0.21261 -0.15422,0.11216 -0.28348,0.25513 -0.42523,0.3827"
           id="path960-2"
           inkscape:connector-curvature="0" />
        <path
           style="fill:none;stroke:#000000;stroke-width:0.7;stroke-linecap:butt;stroke-linejoin:miter;stroke-miterlimit:4;stroke-dasharray:none;stroke-opacity:1"
           d="m 135.36745,205.21789 c 0.0425,0.0567 0.085,0.11339 0.12757,0.17009 0.0141,0 0.0283,0 0.0425,0"
           id="path970-2"
           inkscape:connector-curvature="0" />
        <path
           style="fill:none;stroke:#000000;stroke-width:0.7;stroke-linecap:butt;stroke-linejoin:miter;stroke-miterlimit:4;stroke-dasharray:none;stroke-opacity:1"
           d="m 137.49357,204.96276 0.12756,1.87098 -2.25368,-1.61585"
           id="path972-1"
           inkscape:connector-curvature="0" />
        <path
           style="fill:none;stroke:#000000;stroke-width:0.7;stroke-linecap:butt;stroke-linejoin:miter;stroke-miterlimit:4;stroke-dasharray:none;stroke-opacity:1"
           d="m 132.56097,204.87772 1.3182,0.93549 -0.17009,-1.57333"
           id="path974-1"
           inkscape:connector-curvature="0" />
        <path
           style="fill:none;stroke:#000000;stroke-width:0.7;stroke-linecap:butt;stroke-linejoin:miter;stroke-miterlimit:4;stroke-dasharray:none;stroke-opacity:1"
           d="m 137.9613,203.60205 2.55134,1.19062 0.17009,-2.59386"
           id="path976-7"
           inkscape:connector-curvature="0" />
        <path
           style="fill:none;stroke:#000000;stroke-width:0.7;stroke-linecap:butt;stroke-linejoin:miter;stroke-miterlimit:4;stroke-dasharray:none;stroke-opacity:1"
           d="m 140.68273,202.19881 v 0"
           id="path978-6"
           inkscape:connector-curvature="0" />
        <path
           style="fill:none;stroke:#000000;stroke-width:0.7;stroke-linecap:butt;stroke-linejoin:miter;stroke-miterlimit:4;stroke-dasharray:none;stroke-opacity:1"
           d="m 140.93788,199.77503 0.55278,1.57333 -1.35769,-0.0842"
           id="path980-9"
           inkscape:connector-curvature="0"
           sodipodi:nodetypes="ccc" />
        <path
           sodipodi:nodetypes="cscccc"
           style="fill:none;stroke:#000000;stroke-width:0.7;stroke-linecap:butt;stroke-linejoin:miter;stroke-miterlimit:4;stroke-dasharray:none;stroke-opacity:1"
           d="m 132.17827,195.1826 c -0.0577,0.24479 -1.69191,-0.13794 -2.08483,0.25498 -0.2852,0.2852 -0.80798,0.20354 -1.20271,0.4009 -2.12949,1.06475 -4.70733,-1.0123 -6.48129,-1.60362 -0.58649,-0.19549 -1.41694,-0.27415 -1.80407,-0.46772 -0.3325,-0.16625 -1.63994,-1.87159 -1.89841,-1.87159"
           id="path1336"
           inkscape:connector-curvature="0" />
      </g>
      <path
         transform="scale(0.26458333)"
         inkscape:connector-curvature="0"
         id="path1452"
         d="m 540.04227,806.74351 c -2.8829,-4.09745 -8.00734,-10.99297 -10.23485,-13.77216 -1.83727,-2.29231 -2.70736,-3.02545 -5.70728,-4.80897 -1.01657,-0.60438 -1.77396,-1.12366 -1.68308,-1.15395 0.74692,-0.24898 4.86724,2.27516 8.70533,5.33296 6.3654,5.07128 13.48443,12.13941 14.36288,14.26019 0.22081,0.53308 0.21057,0.66215 -0.0983,1.23904 -0.33319,0.62228 -2.34896,2.16182 -2.83054,2.16182 -0.12167,0 -1.25303,-1.46652 -2.51415,-3.25893 z"
         style="opacity:1;fill:#ffffff;fill-opacity:1;stroke:#ffffff;stroke-width:0.33745784;stroke-linecap:butt;stroke-linejoin:miter;stroke-miterlimit:4;stroke-dasharray:none;stroke-dashoffset:0;stroke-opacity:1" />
      <path
         transform="scale(0.26458333)"
         inkscape:connector-curvature="0"
         id="path1454"
         d="m 522.03756,827.66269 c -1.36294,-1.21477 -2.58215,-2.96149 -2.97671,-4.26466 -0.51143,-1.68912 -4.02107,-8.15745 -7.50508,-13.83197 -0.71699,-1.16778 -1.12454,-1.99505 -0.99764,-2.02504 0.118,-0.0279 1.71335,0.23315 3.5452,0.58007 3.28854,0.6228 5.96022,1.38321 6.80525,1.93689 0.57047,0.37379 1.57566,1.91016 4.22807,6.46232 2.46305,4.22715 3.01648,5.091 3.83255,5.98214 0.83093,0.90737 1.86924,3.74172 1.87441,5.11675 l 0.002,0.56317 -1.83036,0.10071 c -1.0067,0.0554 -2.75911,0.14296 -3.89424,0.19459 l -2.06389,0.0939 -1.01968,-0.90883 z"
         style="opacity:1;fill:#ffffff;fill-opacity:1;stroke:#ffffff;stroke-width:0.33745784;stroke-linecap:butt;stroke-linejoin:miter;stroke-miterlimit:4;stroke-dasharray:none;stroke-dashoffset:0;stroke-opacity:1" />
      <path
         transform="scale(0.26458333)"
         inkscape:connector-curvature="0"
         id="path1456"
         d="m 479.95287,795.71673 c -0.83482,-0.0616 -1.47557,-0.12701 -1.42388,-0.14531 0.0517,-0.0183 0.77489,-0.11628 1.60714,-0.21775 0.83224,-0.10147 1.95514,-0.31623 2.49532,-0.47725 0.54017,-0.16102 1.43087,-0.27227 1.97932,-0.24722 0.7355,0.0336 1.2744,-0.0707 2.05357,-0.39735 0.58102,-0.24359 2.46696,-0.80675 4.19098,-1.25147 1.72403,-0.44472 3.61242,-1.02203 4.19643,-1.28291 1.01349,-0.45273 1.15216,-0.46886 3.0456,-0.35435 1.93748,0.11718 2.01623,0.10697 3.37585,-0.43745 2.07775,-0.83197 2.00618,-0.5641 -0.11264,0.42156 -7.63222,3.55045 -14.28742,4.91505 -21.40769,4.3895 z"
         style="opacity:1;fill:#ffffff;fill-opacity:1;stroke:#ffffff;stroke-width:0.33745784;stroke-linecap:butt;stroke-linejoin:miter;stroke-miterlimit:4;stroke-dasharray:none;stroke-dashoffset:0;stroke-opacity:1" />
      <path
         sodipodi:nodetypes="ccsccccsccssscssccsscsscccccsscscccssscssccsccscccccccccssssscccccccccccssccscsscccsccsscccsscscccscccscccsccccsscccccsscscssssccsscsssscssccccccscsccscccsccsccscsccsscsssscsscccccccccccsccsscscccscssscsssscsscssccsscccsccsccsccccssscsscsssssssscsccccssccccscccscccscscscscccssscscsccscccccccssccsccscssssccscscccccsscsccscsccccccssssccssccsccccscscscsscssssssscsssssscsscscccccsssscsssccsccscscccsccsssccsscssssccccccscscsscccccccsc"
         transform="scale(0.26458333)"
         inkscape:connector-curvature="0"
         id="path1450"
         d="m 502.30142,824.08004 c -1.94269,-1.33895 -4.17502,-3.19658 -4.96073,-4.12809 -3.12222,-3.70154 -11.24413,-4.99986 -18.19375,-2.90833 -5.20271,1.56579 -9.31278,1.68952 -19.21244,0.57839 -6.9266,-0.77745 -17.09381,-1.58186 -22.59381,-1.78762 -17.56209,-0.65698 -38.41197,-3.29635 -43.63283,-5.52345 -2.78377,-1.1875 -8.89092,-2.59408 -13.57143,-3.1257 -8.91987,-1.01318 -13.46233,-2.92566 -23.42644,-9.86313 -4.97237,-3.46199 -7.55743,-4.22003 -14.8382,-4.35113 -5.92079,-0.10657 -10.10923,-1.01372 -12.75153,-2.76166 -4.06333,-2.688 -11.32626,-3.19738 -21.37722,-1.49928 -4.65001,0.78561 -6.49717,0.29145 -11.26735,-3.01429 -5.32133,-3.68769 -7.07162,-4.02919 -25.9917,-5.07131 -11.15739,-0.61455 -23.75635,-2.07905 -27.99769,-3.25445 -5.16633,-1.43173 -10.71137,-1.85694 -16.80057,-1.28833 -7.65746,0.71506 -9.55731,0.42498 -12.06205,-1.84178 -2.47919,-2.24364 -4.84208,-2.62307 -14.22548,-2.28436 l -11.25247,0.40619 -5.12938,-7.13973 c -6.05106,-8.42263 -8.03675,-9.23799 -21.88326,-8.98564 -9.41048,0.17151 -10.38659,-0.0623 -9.45915,-2.2653 4.09912,-9.73708 1.38664,-12.42058 -11.50841,-11.38549 -8.54454,0.68587 -9.66333,0.43381 -14.24878,-3.21024 l -4.97617,-3.95456 4.13037,-1.71086 c 5.21748,-2.16115 10.85334,-8.00638 8.88972,-9.21997 -0.79862,-0.49357 -5.82911,-2.53888 -11.17887,-4.54511 -9.49224,-3.55975 -15.11589,-7.44486 -17.69271,-12.22307 -0.91976,-1.70552 0.1118,-4.66713 3.7026,-10.63025 2.73766,-4.54634 4.97757,-9.35767 4.97757,-10.69185 0,-3.52113 -4.01167,-7.85516 -12.14286,-13.11862 -5.708169,-3.69498 -8.04558,-6.48877 -11.637241,-13.9094 -2.471911,-5.10714 -4.079054,-9.39378 -3.571428,-9.52587 0.507626,-0.13214 3.314747,-0.6398 6.238047,-1.12827 7.137536,-1.19264 13.980022,-7.07032 13.938172,-11.97284 -0.0178,-2.09088 -2.21759,-7.85628 -4.88833,-12.81199 -4.282338,-7.94613 -4.764313,-9.8977 -4.080557,-16.52267 0.550247,-5.33137 0.1162,-8.78689 -1.495098,-11.9028 l -2.270433,-4.39053 6.383438,-1.60737 c 8.90406,-2.24207 9.04343,-5.85723 0.60632,-15.7278 -6.421621,-7.51266 -5.716414,-8.64122 5.41997,-8.6737 l 7.5,-0.0219 0.28834,-7.5 c 0.46178,-12.0114 -0.0538,-16.47405 -2.43539,-21.07953 -2.15239,-4.16227 -2.09732,-4.45236 1.47353,-7.76172 2.04022,-1.8908 6.25461,-3.86782 9.36531,-4.39337 6.27269,-1.05977 7.71813,-3.03304 12.01917,-16.40824 1.38963,-4.32143 2.87866,-8.46594 3.30894,-9.21003 0.43029,-0.74408 0.61973,-4.41663 0.42098,-8.1612 -0.34042,-6.41387 -0.12779,-6.8626 3.67031,-7.74563 2.21742,-0.51554 5.31738,-1.72767 6.88881,-2.69363 1.57143,-0.96597 5.42857,-2.58585 8.57143,-3.59977 12.14275,-3.91734 19.18653,-12.97344 19.25434,-24.75508 0.032,-5.55809 2.06448,-10.856 4.88809,-12.74133 0.86452,-0.57724 5.6341,-2.41229 10.59908,-4.07787 9.21191,-3.0903 10.47686,-4.43739 12.34452,-13.14596 0.68954,-3.21521 2.50737,-4.70417 9.38458,-7.68673 7.34005,-3.18328 8.52939,-4.22633 8.52939,-7.48021 0,-5.56332 3.5602,-9.72179 11.88515,-13.8824 8.81448,-4.40526 15.2577,-10.12398 15.2577,-13.54202 0,-1.36017 0.39746,-3.50878 0.88325,-4.77471 0.80934,-2.10915 1.02603,-2.1064 2.59023,0.0327 1.5013,2.05314 2.5026,1.44957 8.30892,-5.00847 3.63108,-4.03861 7.76903,-9.82359 9.19549,-12.85551 l 2.59354,-5.51259 4.01066,2.34811 c 3.87867,2.27085 4.10359,2.2306 6.8343,-1.22267 5.4341,-6.87195 8.69843,-14.49253 7.77833,-18.15847 -0.48904,-1.94851 -0.16929,-4.41016 0.71057,-5.47033 2.9727,-3.58188 0.95726,-8.37116 -4.6825,-11.12701 -4.50276,-2.20025 -6.14074,-2.35217 -10.35714,-0.96063 -2.75467,0.90918 -5.0085,2.24601 -5.0085,2.97079 0,0.72478 -1.91376,1.31778 -4.25279,1.31778 -4.77168,0 -7.71606,3.51406 -9.29737,11.09626 -0.65879,3.15879 -2.32044,5.36423 -5.14023,6.8224 -2.29171,1.1851 -4.16676,3.12511 -4.16676,4.31114 0,1.5912 -0.6553,1.81942 -2.5,0.87064 -3.47808,-1.78884 -6.07142,-0.54577 -6.07142,2.91023 0,1.6035 -2.25,7.89869 -5,13.98933 -5.92678,13.12649 -6.17886,16.95123 -1.48488,22.52972 l 3.51513,4.17748 -7.20478,3.37455 c -7.27541,3.40761 -11.25405,8.41042 -11.25405,14.15104 0,2.19717 -1.99572,3.8287 -7.85064,6.41803 -7.79667,3.44805 -9.57997,5.63113 -11.334,13.87484 -0.6818,3.20434 -2.2863,4.30233 -10.07438,6.89403 -13.31907,4.4323 -14.90282,6.11847 -16.52252,17.59111 -1.97853,14.01427 -4.34144,17.72453 -13.96293,21.92459 -4.46197,1.94777 -9.71981,4.38847 -11.6841,5.42377 -1.96428,1.03531 -5.66071,2.32911 -8.21428,2.87511 -4.38819,0.93829 -4.64286,1.33915 -4.64286,7.30782 0,7.37077 -2.06555,8.09344 -9.74706,3.4102 -4.18191,-2.54962 -4.63458,-3.40626 -3.80231,-7.19557 0.60853,-2.77065 0.21119,-5.42463 -1.11652,-7.45763 -1.29991,-1.99043 -1.64746,-4.21156 -0.94095,-6.01337 1.87317,-4.77716 1.44851,-9.59187 -1.00418,-11.38533 -2.1177,-1.5485 -2.03184,-2.21022 0.96157,-7.41137 4.90757,-8.5271 3.42803,-10.48902 -7.91008,-10.48902 h -9.36348 l 2.25534,-3.44208 c 1.53897,-2.34877 2.15678,-6.1735 1.94502,-12.04142 -0.2236,-6.19637 0.38916,-9.66685 2.19286,-12.41965 l 2.50317,-3.82033 -5.78749,0.9778 c -5.28416,0.89274 -5.86187,0.68143 -6.642758,-2.42989 -0.479545,-1.91066 0.37315,-6.82538 1.940998,-11.18747 1.53795,-4.2789 3.1817,-9.94207 3.65279,-12.58482 l 0.85651,-4.80501 -3.74785,2.45569 c -3.087704,2.02314 -3.963973,2.11461 -4.97484,0.5193 -3.056098,-4.82305 0.25014,-18.66036 8.25815,-34.56215 2.70698,-5.37534 5.29816,-12.95127 5.75818,-16.83539 0.70784,-5.97659 0.35849,-7.57073 -2.27293,-10.37174 -2.70563,-2.88002 -2.83469,-3.53764 -0.99405,-5.06524 2.92697,-2.42916 7.08429,-13.79534 6.04062,-16.51511 -1.01086,-2.63425 7.49497,-15.07536 12.58863,-18.41285 1.89537,-1.2419 5.12866,-4.4639 7.18508,-7.16001 3.53686,-4.63706 3.62881,-5.1656 1.70117,-9.77909 -1.12078,-2.6824 -4.38576,-6.81249 -7.25551,-9.17798 l -5.21773,-4.3009 5.98015,-2.69667 c 9.12393,-4.11432 16.68842,-10.13338 17.20616,-13.69093 0.32808,-2.25436 1.8623,-3.5595 5.19381,-4.41829 3.17948,-0.8196 5.69238,-2.85303 7.67191,-6.20808 3.80397,-6.44724 9.24941,-9.17055 18.33717,-9.17055 9.0123,0 12.83416,-1.89858 12.83416,-6.37561 0,-3.29001 0.29492,-3.38751 7.87852,-2.60481 6.26586,0.64669 8.43858,0.30629 10.61463,-1.66302 2.30867,-2.08931 4.37013,-2.32303 13.19552,-1.49602 8.70898,0.8161 11.99841,0.46167 19.65555,-2.11783 7.3087,-2.46212 9.90157,-2.77656 12.6331,-1.53199 1.9679,0.89663 6.29671,1.18661 10.12757,0.67843 7.7317,-1.02564 15.10246,2.07017 25.89511,10.87628 7.78896,6.35528 11.742,8.52029 15.557,8.52029 2.76728,0 2.80098,-0.24577 0.8082,-5.8939 -2.35197,-6.66619 -2.66428,-13.82702 -0.73598,-16.8745 3.21068,-5.07418 18.6565,11.60886 18.6565,20.1509 0,3.3403 11.95737,25.15299 14.9317,27.23848 3.29768,2.31221 4.84377,0.7803 5.74513,-5.69241 0.96628,-6.93898 7.9979,-17.05911 10.69481,-15.39232 2.33522,1.44323 6.90582,15.64271 9.39496,29.18732 l 2.4377,13.26456 7.42627,-7.33402 7.42627,-7.33403 3.76813,8.26853 c 2.07247,4.54769 4.7063,9.55425 5.85296,11.12567 1.8421,2.5245 1.78528,3.80932 -0.48795,11.03537 -4.27361,13.58481 -4.69538,17.68372 -2.08794,20.29116 1.59517,1.59518 3.73057,2.07228 6.8241,1.52467 3.14474,-0.55668 6.49022,0.22677 11.09443,2.59811 l 6.59201,3.39513 -2.63428,5.41579 c -1.44884,2.97868 -5.23569,7.64249 -8.41517,10.36402 -5.80896,4.97224 -9.9917,11.3162 -9.9917,15.15437 0,2.20431 4.37458,1.60631 13.8639,-1.89514 2.518,-0.92912 5.66608,-1.47586 6.99575,-1.21496 4.04269,0.7932 -10.13311,18.32451 -18.00251,22.26381 -3.53571,1.76992 -9.64286,6.66305 -13.57143,10.87359 -7.50613,8.0449 -12.66177,11.33547 -20.35667,12.99257 -2.5533,0.54986 -8.66044,3.74131 -13.57143,7.09212 -12.06377,8.23121 -23.6781,13.06627 -38.21476,15.90882 -14.52604,2.84049 -17.53535,4.29009 -25,12.04258 -3.14285,3.26404 -10.16367,9.58488 -15.6018,14.04631 -55.96315,28.15787 -13.3161,62.26167 -60.13252,107.95774 -0.53085,5.41535 -2.90052,16.3151 -5.26593,24.2217 -3.41123,11.40235 -4.15957,16.1617 -3.61818,23.01109 0.51284,6.48821 -0.002,10.2664 -2.07082,15.1946 -2.57497,6.13416 -2.65902,8.21686 -1.29714,32.14286 1.48194,26.03551 4.32968,40.5837 7.94405,40.5837 1.46541,0 1.26416,-1.98963 -0.90315,-8.92858 -1.99207,-6.37788 -3.12116,-15.83108 -3.95234,-33.09054 -1.06989,-22.21607 -0.94263,-24.66148 1.58008,-30.3645 2.17699,-4.92144 2.54761,-7.93553 1.79441,-14.59296 -0.80523,-7.11731 -0.2496,-10.63861 3.66184,-23.20692 2.53611,-8.14908 4.91924,-18.67365 5.29584,-23.38793 -10.59781,-45.60309 28.9752,-75.53236 31.46795,-85.62672 -0.45206,-0.73143 -0.16856,-1.73366 0.62997,-2.22717 2.3888,-1.47636 1.65522,-3.19688 -1.76241,-4.13346 -2.67782,-0.73386 -2.85664,-1.11387 -1.07143,-2.27687 1.17857,-0.76779 3.21321,-1.06326 4.52141,-0.65659 1.44973,0.45066 3.27353,-0.53834 4.67038,-2.53261 1.2605,-1.79962 2.60085,-3.1113 2.97858,-2.91487 0.37773,0.19642 0.64883,-0.125 0.60246,-0.71429 -0.0464,-0.58929 5.94575,-3.21754 7.75997,-3.67996 1.81423,-0.4624 -11.7014,-9.87348 2.94146,-2.5 -0.19643,-0.91258 1.20409,-1.65924 3.11224,-1.65924 1.90818,0 4.31889,-0.83954 5.35715,-1.86564 1.03827,-1.02612 -2.40077,-4.50751 -1.02577,-5.02817 1.375,-0.52065 2.5,-1.60968 2.5,-2.42007 0,-0.81037 1.67463,-1.4734 3.7214,-1.4734 2.04676,0 6.57899,-1.92857 10.07162,-4.28571 3.49261,-2.35714 7.2621,-4.28572 8.37663,-4.28572 1.16827,0 1.69513,-0.8633 1.24411,-2.03862 -0.5699,-1.4851 5.91097,-3.34424 8.05783,-2.78281 3.88106,1.01492 4.48692,-0.78813 3.41211,-2.52723 -0.50332,-0.81437 2.68658,-0.86214 5.16285,-0.36689 3.02282,0.60456 -8.99553,6.65012 -8.35835,4.98964 0.48128,-1.25417 2.40849,-2.28032 4.2827,-2.28032 1.87422,0 5.21563,-1.67557 7.42539,-3.7235 3.9257,-3.63821 30.84774,1.72772 44.2251,2.65063 26.52443,1.82993 45.20236,3.91702 52.9196,5.9133 12.27069,3.17414 29.2398,2.61242 40.87821,-1.3532 14.85902,-5.06298 66.7031,-32.55779 73.98708,-39.23803 1.67687,-1.53788 9.39212,-7.36571 17.14501,-12.95074 12.3521,-8.89822 14.8708,-10.1546 20.35714,-10.1546 h 6.26099 v 6.23591 c 0,4.17152 -0.99303,7.49835 -2.99963,10.04933 -2.06209,2.62152 -2.72334,4.91426 -2.11564,7.33552 0.4862,1.93715 0.3501,3.5221 -0.30243,3.5221 -2.80076,0 -7.43944,6.11468 -7.43944,9.80662 0,2.39936 -1.41896,5.31409 -3.57143,7.33623 -3.4043,3.19818 -4.78497,7.1429 -2.5,7.14282 2.06951,-9e-5 8.92857,-9.88032 8.92857,-12.8613 0,-1.6577 2.01671,-4.85599 4.48158,-7.1073 3.31195,-3.025 4.26692,-4.91422 3.65906,-7.23869 -0.50894,-1.94618 0.2313,-4.57596 1.94154,-6.8976 1.92018,-2.6066 3.0453,-7.24154 3.68515,-15.18078 0.99583,-12.35659 2.58103,-16.15717 12.51284,-30 5.6442,-7.86681 6.54647,-8.53798 10.97574,-8.16455 10.33416,0.87128 16.47762,9.12508 15.14802,20.35154 -0.43489,3.67193 -4.11197,16.45588 -8.1713,28.40873 -6.3997,18.84419 -7.86572,25.65641 -4.87846,22.66916 0.4305,-0.43051 4.04727,-10.268 8.03724,-21.86111 11.60333,-33.71405 10.8325,-45.66013 -3.31144,-51.31942 -7.68446,-3.07471 -6.32537,-4.32127 1.64529,-1.50906 7.52892,2.65637 9.87521,4.51077 11.66568,9.22009 1.89104,4.97381 1.77696,22.71137 -0.17873,27.78993 -1.19533,3.10406 -1.16834,6.08874 0.10657,11.78571 2.17635,9.72495 4.71616,10.08856 3.39549,0.48612 -0.91414,-6.6466 -0.77061,-7.14286 2.06571,-7.14286 4.96649,0 14.4939,5.60136 23.64858,13.90349 4.71428,4.27525 13.07142,11.1763 18.57142,15.33567 5.5,4.15936 13.57716,11.33569 17.94923,15.94737 15.14427,15.97427 32.62437,45.44102 37.00879,62.38687 1.4634,5.65606 4.35824,13.95747 6.43298,18.44759 6.07436,13.14597 6.1843,17.00533 0.67959,23.8552 -3.00896,3.74424 -5.85654,5.8381 -7.93966,5.8381 -4.36561,0 -5.63198,-2.47707 -2.8423,-5.55964 2.36309,-2.61119 3.05712,-5.86893 1.25033,-5.86893 -0.56786,0 -2.82649,4.079 -5.59792,7.25109 -4.36597,4.99715 -6.65724,4.47071 -14.08389,5.68339 -12.10209,1.97613 -18.56173,0.53827 -29.89566,-6.65448 -7.27174,-4.6148 -11.35134,-6.28 -15.38553,-6.28 -6.03604,0 -15.76073,5.27355 -18.22881,9.88523 -1.92323,3.59357 -1.93446,12.97191 -0.0156,12.97191 0.81094,0 3.78765,0.96651 6.61491,2.14783 l 5.14046,2.14781 -3.88215,3.05369 -3.88212,3.0537 -12.21568,-3.01569 c -11.92607,-2.9442 -17.53555,-6.01828 -17.53555,-9.60975 0,-0.97878 -1.60086,-5.21843 -3.55747,-9.42145 -1.95662,-4.20303 -3.56376,-9.05034 -3.57143,-10.77183 -0.0143,-3.09472 -2.35862,-5.71584 -3.8126,-4.26187 -1.0622,1.06222 3.64278,16.68635 6.0672,20.14767 1.10943,1.58395 2.01715,3.91052 2.01715,5.17016 0,4.37204 6.68809,8.65792 17.87195,11.4527 6.08371,1.5203 12.42631,2.76377 14.09467,2.76327 1.66836,-4.8e-4 6.89053,-3.05038 11.60481,-6.77753 4.8745,-3.85381 11.34413,-7.49895 15,-8.45135 5.95196,-1.55056 6.76573,-1.41877 10.97612,1.77753 2.96038,2.24737 6.45051,3.45504 10,3.46022 6.61953,0.01 14.90325,2.13309 22.6892,5.81605 3.1945,1.51107 6.52284,2.74741 7.39631,2.74741 2.12579,0 7.66864,7.15867 6.72503,8.68547 -0.88606,1.43367 -7.33243,-1.10931 -11.35809,-4.48057 -3.33225,-2.79057 -11.68635,-4.67068 -12.79354,-2.87923 -0.82987,1.34276 2.42699,2.96005 5.96086,2.96005 1.22063,0 3.70878,1.60714 5.52923,3.57142 1.82044,1.96429 4.55133,3.57143 6.06863,3.57143 1.5173,0 3.13648,1.125 3.59817,2.5 0.46168,1.375 1.64721,3.6073 2.6345,4.96069 1.44491,1.98067 1.43565,2.81668 -0.0476,4.28571 -1.49682,1.48256 -2.10726,1.3559 -3.25316,-0.67497 -0.77583,-1.375 -2.5229,-2.5 -3.88239,-2.5 -1.3595,0 -4.59407,-2.25 -7.18794,-5 -4.61824,-4.89623 -10.47489,-6.5911 -12.34114,-3.57143 -0.49346,0.79843 0.60604,1.42857 2.4926,1.42857 1.98224,0 5.37578,2.06378 8.22168,5 2.6654,2.75 5.85116,5 7.07946,5 2.61896,0 6.25724,5.21119 5.02749,7.20098 -1.55529,2.51651 -7.1972,1.41145 -13.6335,-2.67032 -8.2653,-5.2417 -10.05238,-4.59787 -8.97879,3.23479 0.77847,5.67955 0.57417,6.19325 -2.79974,7.04005 -4.4618,1.11985 -9.37743,-0.63364 -12.97622,-4.6288 -1.49043,-1.65458 -5.4854,-4.6349 -8.87771,-6.62292 l -6.16784,-3.6146 -8.11268,2.85137 c -4.46197,1.56824 -9.36122,3.99265 -10.88725,5.38755 -1.52602,1.3949 -6.84047,5.10762 -11.8099,8.25048 -4.96943,3.14285 -16.48857,10.44785 -25.59812,16.23332 -9.10954,5.78546 -19.93513,11.8951 -24.05685,13.57696 -4.12173,1.68186 -9.74406,4.41997 -12.49406,6.0847 -2.75,1.66472 -7.78527,3.44619 -11.18949,3.9588 -3.40423,0.51262 -9.32928,2.52307 -13.1668,4.46769 -10.76895,5.45704 -15.39757,4.80594 -25.47935,-3.58422 -4.70548,-3.91593 -11.97099,-11.66174 -16.1456,-17.21291 -4.17453,-5.55117 -12.73298,-16.02099 -19.01869,-23.26626 -6.28571,-7.24527 -12.6512,-15.89233 -14.14553,-19.21566 -1.49434,-3.32334 -3.58363,-6.04242 -4.64286,-6.04242 -1.05924,0 -1.9259,0.24045 -1.9259,0.53435 0,1.91596 8.50828,15.45315 12.74933,20.28495 7.6564,8.7229 16.03715,19.1059 20.63535,25.56538 2.25444,3.167 8.91988,8.26622 12.84782,12.31376 6.79702,7.00396 7.00017,7.43491 4.20924,8.92857 -1.61287,0.86317 -7.16881,2.37299 -10.38226,2.37299 -4.3404,0 -7.71155,1.28558 -13.11136,5 -7.04053,4.84302 -7.68974,5 -20.67984,5 -7.37613,0 -15.23257,0.875 -15.82185,1.07143 -0.58929,0.19643 -0.15385,-4.53572 -0.6693,-9.64286 -1.40207,-13.89242 -5.90383,-24.41375 -13.40391,-31.32707 -3.50812,-3.23368 -7.89512,-6.57046 -9.7489,-7.4151 -1.85377,-0.84465 -4.38916,-3.67183 -5.63416,-6.28265 -3.06741,-6.43241 -13.87874,-11.75793 -26.39524,-13.00191 -5.2772,-0.52449 -11.14603,-1.52836 -13.04183,-2.23082 -2.06423,-0.76487 -3.97659,-0.74752 -4.76733,0.0433 -2.06371,2.06371 0.54576,2.97416 13.46774,4.69887 15.77725,2.10582 25.50906,6.58779 28.66242,13.20046 1.35921,2.85028 4.44704,6.07236 7.10161,7.41037 12.85006,6.47693 18.808,17.69454 21.03247,39.59993 2.50323,24.65044 3.24293,57.22556 1.4031,61.7899 -0.93757,2.326 -2.13854,11.94337 -2.66881,21.37194 -0.79844,14.19679 -1.66956,18.8614 -5.06889,27.14286 -2.2576,5.5 -4.20484,12.57143 -4.32721,15.71428 -0.41381,10.62893 -0.5434,11.07005 -2.97781,10.13588 -1.26716,-0.48626 -4.32073,0.33595 -6.78572,1.82712 -2.465,1.49118 -6.08894,3.17818 -8.05323,3.74889 -1.96428,0.57071 -5.33928,2.69286 -7.5,4.71589 -5.65027,5.29017 -5.37731,11.98062 0.7383,18.09624 5.42253,5.42253 17.00839,8.59988 40.33313,11.06116 24.79576,2.6165 31.74312,2.27238 42.38652,-2.09949 16.62577,-6.82917 19.65121,-5.50581 33.3934,14.60659 7.64371,11.18695 7.40134,12.84241 -1.88652,12.88585 -4.0236,0.0189 -5.2192,-0.87408 -8.54658,-6.38278 -3.71963,-6.15819 -8.7049,-9.3097 -14.72656,-9.3097 -1.38864,0 -3.71654,-1.63597 -5.17309,-3.6355 -1.45655,-1.99953 -3.92088,-3.68455 -5.4763,-3.74449 -3.22718,-0.12428 -26.34378,5.41957 -27.52551,6.6013 -2.47772,2.4777 2.65817,2.25866 14.09974,-0.60137 15.09112,-3.7723 14.08126,-4.22044 22.77082,10.10507 5.00644,8.25359 5.3139,9.30393 3.19581,10.91784 -3.24574,2.47318 -7.65799,2.23136 -11.83671,-0.64872 z M 173.76926,600.73996 c 0,-5.49712 -4.08947,-25.4752 -5.91168,-28.88004 -2.87361,-5.36938 -3.68577,-0.72678 -1.25039,7.14762 1.39845,4.52167 3.00228,12.23908 3.56405,17.1498 1.04603,9.14374 3.59802,12.3941 3.59802,4.58262 z m 523.32016,-104.8001 c 0.8066,-2.10197 -0.11683,-3.7111 -2.12969,-3.7111 -0.65476,0 -1.19047,1.28572 -1.19047,2.85715 0,3.2756 2.1761,3.8353 3.32016,0.85395 z m -6.1773,-1.56824 c 0,-1.17857 -0.64286,-2.14286 -1.42858,-2.14286 -0.78571,0 -1.42857,0.96429 -1.42857,2.14286 0,1.17857 0.64286,2.14286 1.42857,2.14286 0.78572,0 1.42858,-0.96429 1.42858,-2.14286 z m 2.85714,-5.71428 c 0,-1.17858 -0.60492,-2.14286 -1.34426,-2.14286 -1.8014,0 -3.09157,2.23084 -1.95024,3.37217 1.60884,1.60883 3.2945,0.97984 3.2945,-1.22931 z m 7.14286,-1.42858 c 0,-1.17857 -0.64286,-2.14285 -1.42858,-2.14285 -0.78571,0 -1.42857,0.96428 -1.42857,2.14285 0,1.17858 0.64286,2.14286 1.42857,2.14286 0.78572,0 1.42858,-0.96428 1.42858,-2.14286 z m -17.29089,-57.81825 c 2.41623,-9.42757 1.14004,-14.22393 -5.9181,-22.2424 -5.71997,-6.49823 -6.06857,-6.66357 -12.70453,-6.02595 -4.46788,0.4293 -8.56991,1.98792 -11.8834,4.51525 -4.57758,3.49148 -5.06023,4.5254 -5.06023,10.83998 0,5.72987 0.70379,7.6696 3.92857,10.82772 5.19312,5.08574 15.23282,9.01071 23.30136,9.10955 l 6.51564,0.0799 1.82069,-7.10397 z m -422.70911,1.87693 c 0,-1.30343 4.17857,-6.36742 9.28571,-11.25329 8.42931,-8.06411 11.59989,-13.51967 7.85714,-13.51967 -0.78571,0 -1.42857,0.56997 -1.42857,1.26661 0,0.69665 -4.17857,5.42469 -9.28571,10.50679 -5.6714,5.64358 -9.28572,10.43303 -9.28572,12.30481 0,1.68556 0.64286,3.06465 1.42857,3.06465 0.78572,0 1.42858,-1.06646 1.42858,-2.3699 z m 56.98262,-48.17383 c 1.75722,-1.87048 7.81572,-5.49229 13.4633,-8.04848 11.90743,-5.38947 26.97536,-18.55065 21.23822,-18.55065 -0.64514,0 -4.03427,2.74158 -7.53139,6.0924 -3.49711,3.35083 -9.14881,7.01334 -12.55934,8.13891 -6.63307,2.18912 -21.59341,12.1787 -21.59341,14.41874 0,2.48709 3.75571,1.38396 6.98262,-2.05092 z m -142.1843,-10.02195 c 0.63338,-5.38908 0.20144,-9.89004 -1.43552,-14.9586 l -2.34151,-7.25005 5.20364,-5.75982 c 2.862,-3.16788 5.20364,-6.40081 5.20364,-7.18426 0,-2.9025 -2.77705,-1.25851 -7.84972,4.64698 -4.55263,5.30005 -5.09635,6.70667 -4.27964,11.07142 0.51457,2.75 1.25313,9.98215 1.64125,16.07143 0.38812,6.08929 1.21107,11.07143 1.82877,11.07143 0.61771,0 1.5308,-3.46884 2.02909,-7.70853 z m 410.00129,-10.94714 c -1.669,-4.17126 -2.11136,-8.39934 -1.57621,-15.06599 0.92752,-11.55507 -1.96178,-11.95101 -3.61049,-0.49475 -1.22159,8.48831 2.18771,21.35927 5.65773,21.35927 1.4357,0 1.33038,-1.29633 -0.47103,-5.79853 z M 318.5475,320.49963 c 0.45417,-1.73674 -0.71963,-7.60146 -2.60843,-13.03271 -3.16688,-9.10637 -3.26153,-10.1385 -1.21594,-13.26046 3.56773,-5.44504 1.49603,-9.92277 -5.89731,-12.74631 -3.74752,-1.43119 -7.43055,-1.98856 -8.93126,-1.35162 -2.00232,0.84984 -1.17713,1.50375 3.82077,3.02775 3.50606,1.0691 7.30169,2.87085 8.43473,4.0039 1.7944,1.79439 1.75528,2.52525 -0.30322,5.66692 -3.03082,4.62563 -2.97398,6.33526 0.46248,13.90851 1.55417,3.42509 2.83988,8.63815 2.85714,11.58458 0.0344,5.87387 2.0733,7.20022 3.38104,2.19944 z m 57.65896,-23.35127 c 3.01421,-8.68741 2.69761,-14.21444 -1.13676,-19.84436 -1.89381,-2.78064 -3.92544,-5.06011 -4.51473,-5.06548 -2.00515,-0.0183 -1.07983,3.87997 1.78572,7.52292 3.41263,4.33845 3.59394,8.5912 0.71428,16.75304 -2.57731,7.30488 -2.59298,7.53099 -0.47305,6.82435 0.91838,-0.30613 2.54942,-3.09184 3.62454,-6.19047 z m -131.66959,-5.02483 c 4.63372,-9.1442 10.8946,-12.33679 19.7736,-10.08306 3.18735,0.80903 6.09447,1.17165 6.4603,0.80582 1.5766,-1.57659 -2.74044,-3.61043 -9.25377,-4.35962 -5.84724,-0.67259 -7.87673,-0.24261 -12.03346,2.54949 -6.66521,4.47705 -13.63805,18.33546 -9.22547,18.33546 0.33326,0 2.25872,-3.26164 4.2788,-7.24809 z"
         style="opacity:1;fill:#ffffff;fill-opacity:1;stroke:#ffffff;stroke-width:2.69966269;stroke-linecap:butt;stroke-linejoin:miter;stroke-miterlimit:4;stroke-dasharray:none;stroke-dashoffset:0;stroke-opacity:1" />
      <path
         inkscape:connector-curvature="0"
         id="path826"
         d="m 168.86086,136.73809 c -0.392,-3.44758 1.04023,-4.01639 3.40179,-5.19717 2.52393,-1.26196 5.88989,2.14175 7.65401,3.02381 1.9667,0.98335 7.83142,0.38957 8.97694,-0.75595 0.70066,-0.70066 1.59929,1.37371 3.2128,0.56696 0.66803,-0.33402 1.01152,-0.79462 1.22842,-1.22842 0.28589,-0.57179 0.98249,-0.83105 1.32292,-1.51191 1.02182,-2.04364 -0.8775,-5.25126 -1.7009,-6.89806 -1.07061,-2.14123 -0.83308,-4.31201 -1.88988,-6.4256 -1.348,-2.69601 -2.86192,-5.56854 -4.44122,-7.9375 -2.66621,-4.02888 -5.08959,-7.20432 -8.88244,-9.73288 -1.0125,-0.675006 -1.70359,-1.513259 -2.64583,-1.984376 -0.5498,-0.274901 -0.80516,-1.111286 -1.41741,-1.417411 -0.70823,-0.354117 -1.38936,-1.105882 -1.88988,-1.606399 -1.68321,-1.683208 -4.34775,-3.401786 -6.99256,-3.401786"
         style="fill:none;stroke:#000000;stroke-width:0.7;stroke-linecap:butt;stroke-linejoin:miter;stroke-miterlimit:4;stroke-dasharray:none;stroke-opacity:1" />
      <path
         inkscape:connector-curvature="0"
         id="path830"
         d="m 164.98661,96.294643 c 0.27119,-1.243439 -1.0465,-3.104185 -0.37798,-4.441222 1.0419,-2.083798 0.94763,-7.840319 -0.66146,-9.449403 -0.65093,-0.650936 -1.69537,-0.911601 -2.64583,-1.228424 -2.05916,-0.686387 -2.16826,-0.383082 -3.40179,0.850445"
         style="fill:none;stroke:#000000;stroke-width:0.7;stroke-linecap:butt;stroke-linejoin:miter;stroke-miterlimit:4;stroke-dasharray:none;stroke-opacity:1" />
      <path
         inkscape:connector-curvature="0"
         id="path832"
         d="m 159.41146,101.20833 c 0.4233,-2.30366 5.27082,-13.27084 4.06324,-15.68601 -0.5957,-1.191395 -1.19443,-2.571506 -2.55134,-3.023809 -0.39789,-0.132633 -0.81198,-0.150524 -1.03943,-0.377976 -0.14797,-0.147965 -0.80297,0.04748 -0.94494,-0.0945 -0.16489,-0.164883 -1.09449,-0.114215 -1.13393,-0.09449 -1.01616,0.508079 -1.76744,2.022967 -2.17336,2.834823 -0.33637,0.672732 -1.04818,1.426146 -1.6064,1.984375 -0.57256,0.572558 -0.85817,1.71633 -1.22843,2.456844 -0.8131,1.6262 -0.0358,4.890759 -0.94494,6.709076 -0.30948,0.618961 -0.91022,1.064501 -1.22842,1.700895 -0.12801,0.256022 0.54933,0.997847 0.37798,1.511903 -0.17702,0.531056 -1.44124,1.063259 -1.79539,1.417409 -0.31819,0.3182 -0.40683,2.16543 -0.47247,2.36236 -0.36182,1.08546 -1.65647,1.52319 -1.88988,2.45684"
         style="fill:none;stroke:#000000;stroke-width:0.7;stroke-linecap:butt;stroke-linejoin:miter;stroke-miterlimit:4;stroke-dasharray:none;stroke-opacity:1" />
      <path
         inkscape:connector-curvature="0"
         id="path834"
         d="m 154.30878,89.680059 c -0.026,1.46331 -0.84969,3.970261 -0.18899,5.291667 0.26954,0.539075 0.94494,1.91647 0.94494,2.362351"
         style="fill:none;stroke:#000000;stroke-width:0.7;stroke-linecap:butt;stroke-linejoin:miter;stroke-miterlimit:4;stroke-dasharray:none;stroke-opacity:1" />
      <path
         inkscape:connector-curvature="0"
         id="path838"
         d="m 152.22991,91.664434 c -1.01031,0.357841 -2.6378,-0.47649 -3.59077,0 -2.38794,1.193967 -4.70323,3.261471 -7.18155,4.913688 -0.86267,0.575117 -1.47632,1.588609 -2.45685,2.078871 -6.5658,3.282897 -13.24837,8.343897 -20.69419,10.205357 -2.34498,0.58624 -7.80648,0.20725 -9.73289,-0.75595 -0.68289,-0.34145 -14.277804,-1.32292 -15.875001,-1.32292 -1.989604,-0.25136 -4.028114,-0.89365 -5.858629,-0.28348"
         style="fill:none;stroke:#000000;stroke-width:0.7;stroke-linecap:butt;stroke-linejoin:miter;stroke-miterlimit:4;stroke-dasharray:none;stroke-opacity:1" />
      <path
         inkscape:connector-curvature="0"
         id="path870"
         d="m 168.86086,136.73809 c 1.68827,0.0276 2.63469,0.66328 3.79525,1.43699"
         style="fill:none;stroke:#000000;stroke-width:0.7;stroke-linecap:butt;stroke-linejoin:miter;stroke-miterlimit:4;stroke-dasharray:none;stroke-opacity:1" />
      <path
         inkscape:connector-curvature="0"
         id="path872"
         d="m 159.42627,129.95654 c 0.18552,1.38832 0.91888,4.39338 1.80407,5.27858 0.34761,0.3476 0.24646,1.36154 0.46772,1.80407 0.29675,0.59349 0.74657,0.8802 1.1359,1.26953 0.68134,0.68134 3.32329,0.75961 4.20949,1.20271 0.56421,0.2821 2.60733,0.73426 3.27405,0.4009 0.84324,-0.42161 3.59455,-2.6591 4.2095,-3.27405 0.63752,-0.63752 1.54408,-0.2375 2.27179,-0.60136 0.26535,-0.13267 1.78182,-0.75723 2.13816,-0.4009 0.42982,0.42983 1.36066,1.21893 1.73725,1.46998 0.84281,0.61979 2.21103,-0.16401 3.0736,0.26727 1.09982,0.54991 2.5536,0.44159 3.67496,1.00227 0.50883,0.25441 0.70507,0.63592 1.20271,0.8018 1.40341,0.46781 2.86202,0.5791 3.54132,1.93771 0.68829,1.37657 0.27375,2.07134 -0.53454,2.07134"
         style="fill:none;stroke:#000000;stroke-width:0.7;stroke-linecap:butt;stroke-linejoin:miter;stroke-miterlimit:4;stroke-dasharray:none;stroke-opacity:1" />
      <path
         inkscape:connector-curvature="0"
         id="path874"
         d="m 185.88596,140.31324 c 0.58781,0.80664 1.92159,0.25116 2.53906,0.86862 0.41211,0.41212 0.65334,1.02826 1.13589,1.26953 1.08615,0.54308 0.45597,-0.63186 2.07134,0.735 -0.21741,1.03376 0.57826,1.22332 0.86863,1.80407 0.36536,0.73071 -0.28059,2.07133 -0.93545,2.07133 -0.78488,-0.17528 -0.68568,-1.01101 -1.20271,-1.26953 -0.52881,-0.2644 -1.01153,0.12437 -1.46998,-0.33408 -0.77805,-0.77805 -1.17147,-1.68822 -2.20497,-2.20498 -0.39375,-0.19687 -1.24158,0.0539 -1.60362,-0.0668"
         style="fill:none;stroke:#000000;stroke-width:0.7;stroke-linecap:butt;stroke-linejoin:miter;stroke-miterlimit:4;stroke-dasharray:none;stroke-opacity:1" />
      <path
         inkscape:connector-curvature="0"
         id="path876"
         d="m 185.35142,146.59407 c 1.59763,1.113 3.30785,2.40543 5.14493,2.40543 1.3093,0 0.80647,-2.33162 1.06908,-1.93771"
         style="fill:none;stroke:#000000;stroke-width:0.7;stroke-linecap:butt;stroke-linejoin:miter;stroke-miterlimit:4;stroke-dasharray:none;stroke-opacity:1" />
      <path
         inkscape:connector-curvature="0"
         id="path878"
         d="m 173.85883,147.59633 c 0.41091,-0.0955 0.73763,-0.36816 1.13589,-0.46772 0.42255,-0.10564 1.82756,-0.77832 2.27179,-0.33409 0.53725,0.53725 1.343,0.93877 2.00452,1.26953 0.6892,0.34461 1.49608,1.36245 2.00452,1.87089 0.85621,0.8562 3.26937,0.80649 4.00905,0.0668 0.41046,-0.41046 0.267,-2.07189 0.13363,-2.33861 -0.11356,-0.22713 -0.46772,-0.8553 -0.46772,-0.60136 0,0.0521 0.14103,-0.20784 0.40091,-0.46772"
         style="fill:none;stroke:#000000;stroke-width:0.7;stroke-linecap:butt;stroke-linejoin:miter;stroke-miterlimit:4;stroke-dasharray:none;stroke-opacity:1" />
      <path
         inkscape:connector-curvature="0"
         id="path882"
         d="m 178.66968,135.30193 c 1.88052,-1.03794 3.46992,0.40091 5.41221,0.40091 0.85942,0 2.81514,-0.36309 3.54132,0 0.50706,0.25353 1.31516,1.84643 1.00226,2.47224 -0.17092,0.34183 -0.42892,0.47634 -0.60136,0.73499"
         style="fill:none;stroke:#000000;stroke-width:0.7;stroke-linecap:butt;stroke-linejoin:miter;stroke-miterlimit:4;stroke-dasharray:none;stroke-opacity:1" />
      <path
         inkscape:connector-curvature="0"
         id="path884"
         d="m 182.6119,137.17282 c 0.70709,-0.37764 1.68403,-0.80181 2.27179,-0.80181"
         style="fill:none;stroke:#000000;stroke-width:0.7;stroke-linecap:butt;stroke-linejoin:miter;stroke-miterlimit:4;stroke-dasharray:none;stroke-opacity:1" />
      <path
         sodipodi:nodetypes="cc"
         inkscape:connector-curvature="0"
         id="path886"
         d="m 174.39337,131.82743 c -0.14069,1.4802 1.48665,3.95903 1.26951,4.6104"
         style="fill:none;stroke:#000000;stroke-width:0.7;stroke-linecap:butt;stroke-linejoin:miter;stroke-miterlimit:4;stroke-dasharray:none;stroke-opacity:1" />
      <path
         inkscape:connector-curvature="0"
         id="path888"
         d="m 172.617,107.89379 c 1.17446,-0.83188 2.24229,-1.46466 3.82701,-1.46466 0.22756,0 0.60665,-0.051 0.8032,0.0473 1.55393,0.77696 2.44193,2.02542 3.21279,3.56714 0.21281,0.42562 0.24738,0.95476 0.40161,1.41741 0.30383,0.91151 -0.93621,2.43582 -0.59059,3.47266"
         style="fill:none;stroke:#000000;stroke-width:0.7;stroke-linecap:butt;stroke-linejoin:miter;stroke-miterlimit:4;stroke-dasharray:none;stroke-opacity:1" />
      <path
         inkscape:connector-curvature="0"
         id="path890"
         d="m 180.27102,114.93364 c -0.46835,0.0522 -1.01286,0.0236 -1.51191,0.0236 -0.49873,0 -1.60059,0.0256 -2.03162,-0.11811 -2.22838,-0.7428 -4.98456,-1.67277 -4.98456,-4.46485 0,-0.32889 -0.10295,-0.84871 0,-1.15755 0.15118,-0.45353 0.38563,-0.74764 0.56696,-1.11031 0.009,-0.0174 0.093,-0.28381 0.0945,-0.28348 0.0729,0.0162 0.14174,0.0473 0.21261,0.0709"
         style="fill:none;stroke:#000000;stroke-width:0.7;stroke-linecap:butt;stroke-linejoin:miter;stroke-miterlimit:4;stroke-dasharray:none;stroke-opacity:1" />
      <path
         inkscape:connector-curvature="0"
         id="path892"
         d="m 174.45963,107.53943 c 0.40682,0.10414 1.36173,-0.20501 1.72452,-0.0236 0.87449,0.43725 2.37822,0.85857 2.8112,1.72452 0.21904,0.43809 0.1889,1.01563 0.37797,1.39379 0.0173,0.0347 0.0344,2.03371 0,2.10249 -0.15053,0.30107 -0.26714,0.68684 -0.16536,0.99219 -0.43094,-0.0594 -1.07421,-0.33491 -1.58277,-0.16539 -0.32711,0.10903 -0.77757,0.0473 -1.13393,0.0473 -1.82926,0 -3.12416,-0.74405 -3.87426,-2.24424 -0.12547,-0.25095 -0.0686,-0.53432 -0.14174,-0.82682 -0.27179,-1.08718 0.13027,-2.16189 0.77958,-2.8112 0.2573,-0.2573 0.82968,-0.18897 1.20479,-0.18899 z"
         style="fill:none;stroke:#000000;stroke-width:0.7;stroke-linecap:butt;stroke-linejoin:miter;stroke-miterlimit:4;stroke-dasharray:none;stroke-opacity:1" />
      <path
         inkscape:connector-curvature="0"
         id="path894"
         d="m 172.59338,110.37425 c 0.39105,0.13772 0.73059,0.3774 1.08668,0.4961 0.13913,0.0464 0.27765,-0.0473 0.37797,-0.0473 -0.0747,-0.32925 0.0339,-1.20818 0.30711,-1.29924 0.16025,-0.36353 1.44112,0.0826 1.55915,0.0236 0.2875,-0.14375 0.44471,-0.39953 0.73233,-0.54334 0.11074,-0.0554 0.29927,0.18337 0.4016,0.21261 0.26448,0.0756 0.3777,0.25972 0.56697,0.35436 0.11283,0.0564 0.26903,-0.0144 0.35435,0.0709 0.24215,0.24215 0.17849,0.72183 0.42522,0.96856 0.35043,-0.29998 0.56697,-0.64015 0.56697,-1.08669"
         style="fill:none;stroke:#000000;stroke-width:0.7;stroke-linecap:butt;stroke-linejoin:miter;stroke-miterlimit:4;stroke-dasharray:none;stroke-opacity:1" />
      <path
         inkscape:connector-curvature="0"
         id="path896"
         d="m 190.62999,131.59357 c -0.26804,0.41672 -0.43262,0.78257 -0.66818,1.1359"
         style="fill:none;stroke:#000000;stroke-width:0.7;stroke-linecap:butt;stroke-linejoin:miter;stroke-miterlimit:4;stroke-dasharray:none;stroke-opacity:1" />
      <path
         inkscape:connector-curvature="0"
         id="path898"
         d="m 184.98392,129.05451 c -0.17581,-0.68721 0,-0.35197 0,0.23386"
         style="fill:none;stroke:#000000;stroke-width:0.7;stroke-linecap:butt;stroke-linejoin:miter;stroke-miterlimit:4;stroke-dasharray:none;stroke-opacity:1" />
      <path
         inkscape:connector-curvature="0"
         id="path900"
         d="m 183.14644,129.08792 c -0.0334,-0.0445 -0.0867,-0.0796 -0.10022,-0.13364 -0.0352,-0.14095 0.28992,0.37825 0.13363,0.53454 -0.1288,0.1288 -0.20045,-0.24016 -0.20045,-0.30068"
         style="fill:none;stroke:#000000;stroke-width:0.7;stroke-linecap:butt;stroke-linejoin:miter;stroke-miterlimit:4;stroke-dasharray:none;stroke-opacity:1" />
      <path
         inkscape:connector-curvature="0"
         id="path902"
         d="m 182.44486,130.59131 c 0.21785,0.62633 -0.20045,0.39862 -0.20045,-0.0668"
         style="fill:none;stroke:#000000;stroke-width:0.7;stroke-linecap:butt;stroke-linejoin:miter;stroke-miterlimit:4;stroke-dasharray:none;stroke-opacity:1" />
      <path
         inkscape:connector-curvature="0"
         id="path904"
         d="m 183.91484,130.85858 c -0.26009,-0.12443 -0.01,-0.30562 0.13364,-0.23386 0.36866,0.18433 -0.26727,1.17502 -0.26727,0.33409"
         style="fill:none;stroke:#000000;stroke-width:0.7;stroke-linecap:butt;stroke-linejoin:miter;stroke-miterlimit:4;stroke-dasharray:none;stroke-opacity:1" />
      <path
         inkscape:connector-curvature="0"
         id="path924"
         d="m 173.85883,147.59633 c -0.25989,-0.0349 -0.56734,0.18291 -0.84023,0.29206 -0.60332,0.24133 -1.11791,0.9093 -1.6064,1.27567 -1.19306,0.8948 -2.85601,1.9241 -4.20498,2.59859 -0.71336,0.35668 -1.33756,0.97954 -1.98438,1.46466 -0.89263,0.66947 -1.98572,1.20088 -2.97656,1.79538 -1.18597,0.71158 -2.34551,1.60352 -3.59078,2.31511 -1.20686,0.68963 -2.46759,1.1393 -3.68526,1.74813 -0.32517,0.16259 -0.88837,0.18433 -1.27567,0.37798 -0.8395,0.41975 -1.3959,1.12533 -2.36235,1.51191 -1.29102,0.5164 -2.87355,0.30284 -4.15774,0.94494 -1.89068,0.94533 -3.30803,2.04325 -5.43341,1.5119 -0.26991,-0.0675 -0.6992,-0.085 -0.89769,-0.28348"
         style="fill:none;stroke:#000000;stroke-width:0.7;stroke-linecap:butt;stroke-linejoin:miter;stroke-miterlimit:4;stroke-dasharray:none;stroke-opacity:1" />
      <path
         inkscape:connector-curvature="0"
         id="path926"
         d="m 140.84338,163.14918 c -0.58579,0.0767 -1.17655,-0.7761 -1.65365,-1.13393 -2.15215,-1.61411 -5.82361,-5.6941 -7.0398,-8.12649 -0.26841,-0.5368 -1.13258,-1.00612 -1.51191,-1.5119 -0.93284,-1.2438 -2.0098,-2.67126 -3.07106,-3.73252 -0.24874,-0.24874 -0.61566,-0.47464 -0.8032,-0.75595 -0.79952,-1.19928 -1.19854,-2.65324 -2.07887,-3.82701"
         style="fill:none;stroke:#000000;stroke-width:0.7;stroke-linecap:butt;stroke-linejoin:miter;stroke-miterlimit:4;stroke-dasharray:none;stroke-opacity:1" />
      <path
         inkscape:connector-curvature="0"
         id="path928"
         d="m 138.29204,161.68452 c -0.53624,0.28079 -0.9173,0.73099 -1.41741,0.8977 -1.19366,0.39788 -2.73196,-0.25757 -3.82701,0.47246 -0.88894,0.59263 -3.02361,2.31508 -4.016,2.45685 -0.821,0.11729 -1.53649,0.19654 -2.26786,-0.0472 -0.85427,-0.28475 -3.13922,0.0472 -4.20498,0.0472"
         style="fill:none;stroke:#000000;stroke-width:0.7;stroke-linecap:butt;stroke-linejoin:miter;stroke-miterlimit:4;stroke-dasharray:none;stroke-opacity:1" />
      <path
         inkscape:connector-curvature="0"
         id="path930"
         d="m 102.24256,146.8962 c 2.25169,0.99161 4.7923,0.76003 7.1343,1.22843 0.49971,0.0999 0.94945,0.62146 1.46466,0.85044 0.49383,0.21949 1.07416,0.22998 1.55915,0.47247 1.34102,0.67051 1.06248,2.63373 2.3151,3.26005 0.87952,0.43976 1.90465,0.86521 2.64584,1.6064 0.31755,0.31755 0.53744,0.72421 0.89769,1.03943 0.2447,0.21411 0.79445,0.45497 0.94494,0.75595 0.90674,1.81347 1.51036,3.81776 1.84263,5.81139 0.12713,0.76277 -0.0965,1.64546 0.0945,2.40959 0.37041,1.48165 0.51972,3.17391 0.51972,4.77195"
         style="fill:none;stroke:#000000;stroke-width:0.7;stroke-linecap:butt;stroke-linejoin:miter;stroke-miterlimit:4;stroke-dasharray:none;stroke-opacity:1" />
      <path
         sodipodi:nodetypes="cc"
         inkscape:connector-curvature="0"
         id="path932"
         d="m 123.03125,165.46428 c -0.003,0.059 -1.24615,0.18899 -1.41741,0.18899"
         style="fill:none;stroke:#000000;stroke-width:0.7;stroke-linecap:butt;stroke-linejoin:miter;stroke-miterlimit:4;stroke-dasharray:none;stroke-opacity:1" />
      <path
         inkscape:connector-curvature="0"
         id="path934"
         d="m 121.66109,169.1023 c 0.12817,1.98287 -0.009,3.97463 0.18898,5.95313 0.10953,1.09531 0.41069,2.11522 0.28348,3.26004 -0.165,1.48505 -0.84583,2.85901 -1.13392,4.29948 -0.10962,0.54807 0,1.2871 0,1.84264 0,1.38958 0.0449,4.49551 -0.37798,5.76413 -0.38292,1.14877 -0.8899,2.33119 -1.18118,3.49628 -0.15436,0.61745 -0.80319,1.21971 -0.80319,1.84264 0,0.11024 0.011,0.22103 0,0.33073 -0.0381,0.38054 -0.48671,1.05821 -0.28349,1.46466 0.18293,0.36584 0.32937,0.71554 0.23624,1.18117 -0.14957,0.74787 -0.57705,1.30779 -0.18899,1.88988"
         style="fill:none;stroke:#000000;stroke-width:0.7;stroke-linecap:butt;stroke-linejoin:miter;stroke-miterlimit:4;stroke-dasharray:none;stroke-opacity:1" />
      <path
         inkscape:connector-curvature="0"
         id="path936"
         d="m 118.40104,200.42708 c -0.56612,0.34751 -1.39422,-0.25496 -2.03162,0 -0.64789,0.25916 -1.03735,0.87355 -1.70089,1.03944 -2.13979,0.53494 -4.55491,1.57688 -3.92151,4.11049 0.0969,0.38753 0.1532,0.7674 0.42523,1.03943 1.03848,1.87248 3.92472,2.2685 5.81138,2.64584 0.79337,0.15867 1.53725,0.3169 2.31511,0.47247 1.0372,0.20744 2.16976,-0.0794 3.21279,0.0945 1.18087,0.19681 4.31157,0.65542 5.33892,0.14174 0.16379,-0.0819 0.45042,0.0819 0.61421,0 0.80864,-0.40432 1.78269,-0.41887 2.64583,-0.85044 0.35667,-0.17834 0.96738,0.13052 1.32292,-0.0473 0.57997,-0.28999 1.87754,-0.61421 2.50409,-0.61421"
         style="fill:none;stroke:#000000;stroke-width:0.7;stroke-linecap:butt;stroke-linejoin:miter;stroke-miterlimit:4;stroke-dasharray:none;stroke-opacity:1" />
      <path
         inkscape:connector-curvature="0"
         id="path938"
         d="m 126.1023,210.72693 c 2.99089,0.393 5.07804,-0.29478 7.41779,-1.46466 0.73505,-0.36752 1.59667,-0.42036 2.26786,-0.75595 0.19055,-0.0953 1.90218,-0.36567 2.12611,-0.14174 0.29119,0.29119 1.15617,0.63645 1.6064,1.08668 0.67153,0.67153 4.6332,6.10385 4.86644,6.80357"
         style="fill:none;stroke:#000000;stroke-width:0.7;stroke-linecap:butt;stroke-linejoin:miter;stroke-miterlimit:4;stroke-dasharray:none;stroke-opacity:1" />
      <path
         inkscape:connector-curvature="0"
         id="path942"
         d="m 134.65402,213.27827 c 1.01786,0.23733 2.36296,0.33104 3.30729,0.8032 0.45837,0.22919 1.68183,2.86301 2.26785,3.44903 0.50644,0.50643 3.05003,-0.0131 3.49629,-0.23623 0.38027,-0.19014 0.66145,-0.95143 0.66145,-1.03944"
         style="fill:none;stroke:#000000;stroke-width:0.7;stroke-linecap:butt;stroke-linejoin:miter;stroke-miterlimit:4;stroke-dasharray:none;stroke-opacity:1" />
      <path
         inkscape:connector-curvature="0"
         id="path948"
         d="m 134.9375,208.45904 c 1.04531,-0.14942 2.50639,-0.8024 3.63802,-0.42519 1.30891,0.4363 5.43215,4.10797 6.00037,5.24442 0.39941,0.79881 -1.05812,1.37016 -1.13393,1.37016"
         style="fill:none;stroke:#000000;stroke-width:0.7;stroke-linecap:butt;stroke-linejoin:miter;stroke-miterlimit:4;stroke-dasharray:none;stroke-opacity:1" />
      <path
         inkscape:connector-curvature="0"
         id="path952"
         d="m 125.53534,213.13653 c 0.88449,-0.42628 1.94401,-0.47419 2.88207,-0.7087 0.75898,-0.18975 4.12191,-1.24634 4.63021,-0.99219 0.67749,0.33874 4.016,6.09476 4.016,6.47284 0,0.31728 -0.30113,0.49012 -0.42523,0.61421 -0.37975,0.16466 -0.80546,0.38024 -1.08668,0.66146 -0.0548,0.0548 -0.49033,0 -0.56696,0 -1.24706,0 -2.6089,-0.71901 -3.40179,-1.5119 -0.2055,-0.20551 -0.36651,-0.63211 -0.61421,-0.75596 -0.4265,-0.21325 -0.90286,-0.33331 -1.37016,-0.56696 -0.32628,-0.16314 -1.83554,-0.11261 -2.17337,0 -0.80454,0.26818 -1.41503,0.70871 -2.3151,0.70871"
         style="fill:none;stroke:#000000;stroke-width:0.7;stroke-linecap:butt;stroke-linejoin:miter;stroke-miterlimit:4;stroke-dasharray:none;stroke-opacity:1" />
      <path
         inkscape:connector-curvature="0"
         id="path960"
         d="m 140.37091,217.71949 c 0.11301,0.23558 0.56303,1.3741 0.28348,1.65365 -0.0476,0.0476 -2.36352,0.14057 -2.4096,0.0945 -0.15389,-0.15389 -0.37082,-0.32357 -0.56697,-0.51972 -0.17796,-0.17796 -0.30866,-0.4504 -0.47246,-0.61421 -0.007,-0.007 -0.0746,-0.25071 -0.0945,-0.23623 -0.17135,0.12462 -0.31498,0.28348 -0.47247,0.42522"
         style="fill:none;stroke:#000000;stroke-width:0.7;stroke-linecap:butt;stroke-linejoin:miter;stroke-miterlimit:4;stroke-dasharray:none;stroke-opacity:1" />
      <path
         inkscape:connector-curvature="0"
         id="path970"
         d="m 138.48103,219.60937 c 0.0472,0.063 0.0945,0.12599 0.14174,0.18899 0.0157,0 0.0315,0 0.0472,0"
         style="fill:none;stroke:#000000;stroke-width:0.7;stroke-linecap:butt;stroke-linejoin:miter;stroke-miterlimit:4;stroke-dasharray:none;stroke-opacity:1" />
      <path
         inkscape:connector-curvature="0"
         id="path972"
         d="m 140.84338,219.32589 0.14174,2.07887 -2.50409,-1.79539"
         style="fill:none;stroke:#000000;stroke-width:0.7;stroke-linecap:butt;stroke-linejoin:miter;stroke-miterlimit:4;stroke-dasharray:none;stroke-opacity:1" />
      <path
         inkscape:connector-curvature="0"
         id="path974"
         d="m 135.36272,219.2314 1.46466,1.03943 -0.18899,-1.74814"
         style="fill:none;stroke:#000000;stroke-width:0.7;stroke-linecap:butt;stroke-linejoin:miter;stroke-miterlimit:4;stroke-dasharray:none;stroke-opacity:1" />
      <path
         inkscape:connector-curvature="0"
         id="path976"
         d="m 141.36309,217.81399 2.83482,1.32291 0.18899,-2.88207"
         style="fill:none;stroke:#000000;stroke-width:0.7;stroke-linecap:butt;stroke-linejoin:miter;stroke-miterlimit:4;stroke-dasharray:none;stroke-opacity:1" />
      <path
         inkscape:connector-curvature="0"
         id="path978"
         d="m 144.3869,216.25483 v 0"
         style="fill:none;stroke:#000000;stroke-width:0.7;stroke-linecap:butt;stroke-linejoin:miter;stroke-miterlimit:4;stroke-dasharray:none;stroke-opacity:1" />
      <path
         sodipodi:nodetypes="ccc"
         inkscape:connector-curvature="0"
         id="path980"
         d="m 144.67039,213.56175 0.61421,1.74814 -1.50855,-0.0935"
         style="fill:none;stroke:#000000;stroke-width:0.7;stroke-linecap:butt;stroke-linejoin:miter;stroke-miterlimit:4;stroke-dasharray:none;stroke-opacity:1" />
      <path
         inkscape:connector-curvature="0"
         id="path982"
         d="m 125.11012,217.05804 c -0.25608,-0.0103 -0.61464,0.009 -0.89769,-0.0473 -0.7226,-0.14452 -3.30385,0.049 -3.68527,-0.14175 -0.68769,-0.34384 -1.71045,-0.56696 -2.5041,-0.56696 -0.78242,0 -1.93911,-0.21542 -2.69308,0 -0.39487,0.11282 -0.84491,0.21353 -1.27567,0.14174 -1.37083,-0.22847 -2.72644,-0.60548 -4.11049,-0.8032 -1.39934,-0.1999 -2.85676,0.0104 -4.25223,-0.18899 -1.06413,-0.15201 -1.80636,-0.84238 -2.69308,-1.03943 -0.99548,-0.22122 -2.0622,-0.3274 -3.02381,-0.51972 -0.54475,-0.10895 -1.129609,0.0206 -1.653645,-0.18898 -0.787646,-0.31507 -1.511187,-0.54299 -2.126115,-0.85045 -0.302221,-0.15111 -0.388128,-0.35166 -0.755952,-0.42522"
         style="fill:none;stroke:#000000;stroke-width:0.7;stroke-linecap:butt;stroke-linejoin:miter;stroke-miterlimit:4;stroke-dasharray:none;stroke-opacity:1" />
      <path
         inkscape:connector-curvature="0"
         id="path984"
         d="m 95.438988,212.42778 c 0.112379,-0.14908 -0.324821,-0.37202 -0.614212,-0.66141 -0.286157,-0.28616 -0.71329,-0.44403 -1.039434,-0.66146 -0.273846,-0.18257 -0.540856,-0.43932 -0.803201,-0.61421 -0.947978,-0.63199 -3.274419,-0.0418 -4.441219,-0.23624 -0.969605,-0.1616 -1.944822,-1.19491 -3.023809,-1.46466 -1.722297,-0.43057 -4.364051,0.79743 -5.905878,0.28349 -1.187709,-0.39591 -1.916928,-1.53622 -3.212798,-1.79539 -1.147705,-0.22954 -2.451045,-0.0945 -3.638021,-0.0945 -1.187276,0 -2.423097,-0.0945 -3.638021,-0.0945 -2.180492,-0.46351 -4.081543,-0.66182 -6.180421,-1.36144 -1.79778,-0.59926 -4.603886,0.83847 -6.280834,0 -0.59541,-0.29771 -0.364544,-0.78969 -1.202713,-1.06908 -1.774478,-0.59149 -3.621594,0.70823 -5.345391,0.13363 -1.659924,-0.55331 -2.408749,-3.27571 -3.608138,-3.87541 -2.058133,-1.02906 -5.166263,-0.26726 -7.216277,-0.26726 0.0063,-1.38894 1.069078,-2.06907 1.069078,-3.20724 -1.667399,-1.56681 -4.756067,0.22785 -6.548104,-0.66817 -0.492099,-0.24605 -0.624081,-0.98022 -1.069078,-1.20272 -0.717261,-0.35863 -1.658988,-0.55299 -2.405426,-0.8018 2.004753,-0.51252 3.414881,-1.27673 4.810852,-2.6727 -2.54715,-1.38978 -5.012224,-1.53772 -6.815373,-3.34087 -0.562271,-0.56227 -1.32218,-1.99035 -1.603617,-2.27179 1.61298,-1.24267 2.489176,-4.06785 3.073599,-4.94449 -0.17818,-0.31181 -0.314053,-0.65196 -0.534539,-0.93544 -1.590088,-2.04439 -3.630974,-1.97196 -5.078121,-4.14268 -0.936108,-1.40416 -1.124658,-3.53008 -2.53906,-4.94448 2.791653,0.33526 5.153848,-0.84859 6.280834,-2.53906 0.05247,-0.64791 -0.0606,-1.30372 -0.400905,-1.87089 -0.695783,-1.15964 -1.199269,-2.80289 -2.004521,-3.60814 -0.786728,-0.78673 0.5152,-3.91409 0,-4.94449 -0.453664,-0.90732 -1.075782,-1.49009 -1.469983,-2.67269 3.022337,-0.28445 5.734564,-0.279 2.539061,-3.4745 -0.879358,-0.87936 -1.536417,-2.13791 -2.539061,-2.80633 1.808923,-0.44837 3.538576,-0.53454 5.479026,-0.53454 0.05801,-1.66198 0.719249,-4.12309 0.133635,-5.87993 -0.288952,-0.86686 -0.964814,-1.5581 -1.202713,-2.27179 1.398441,-2.09241 2.68625,-2.6727 5.078121,-2.6727 1.835245,-3.67394 2.672695,-6.71172 2.672695,-10.69078 1.45311,-0.22221 2.694205,-0.42241 3.741773,-1.46998 3.468909,-0.60657 6.280834,-2.3162 6.280834,-6.28084 0.155128,-5.28917 2.503772,-3.92458 6.414469,-5.87993 1.186218,-0.59311 0.674353,-2.34787 1.336348,-3.34087 0.793083,-1.18962 3.44038,-1.43585 4.543582,-2.53906 -0.505451,-5.02016 4.488976,-3.59304 6.815373,-7.08264 0.627239,-0.94086 0.320278,-2.56445 0.668173,-3.608137 0.698039,0.503028 0.930129,1.127923 1.336348,1.737252 1.940714,-2.032103 4.543582,-4.736701 4.543582,-7.483547 0.847081,1.113168 1.326641,1.374422 2.271791,2.004521 1.301521,-1.504221 1.742405,-2.282096 2.53906,-3.875408 0.324891,-0.64978 -0.177425,-1.829356 0,-2.53906 0.131541,-0.526164 0.932744,-1.074479 0.668174,-1.603617 -1.090545,-2.18109 -4.7194,-2.278877 -5.479025,0 -3.061482,-1.505059 -2.552821,2.032042 -3.340869,3.608138 -0.738207,1.476415 -2.271791,-0.344304 -2.271791,3.207234 -0.876752,-0.563729 -1.049433,-1.521075 -2.004522,-1.202712 0.316809,2.679253 -3.912044,6.608466 -2.405425,9.621706 0.404741,0.80948 1.603617,0.66397 1.603617,1.87088"
         style="fill:none;stroke:#000000;stroke-width:0.7;stroke-linecap:butt;stroke-linejoin:miter;stroke-miterlimit:4;stroke-dasharray:none;stroke-opacity:1" />
      <path
         inkscape:connector-curvature="0"
         id="path986"
         d="m 54.122079,178.19869 c -0.658927,-1.75375 -1.164051,-3.50979 -1.469983,-5.34539 -0.137568,-0.8254 -0.56257,-12.34393 -0.534538,-12.42803 0.2417,-0.72511 0.728731,-1.45746 1.069078,-2.13816 0.727972,-1.45594 -0.399081,-4.01633 0,-5.61266 0.614376,-2.45751 1.336342,-4.81083 2.138156,-7.21627 0.592373,-1.77712 0.08005,-3.98194 0.668174,-5.7463 2.73482,-8.20446 4.589375,-14.47835 10.557145,-20.44612 2.133871,-3.3608 5.122518,-4.85524 7.750818,-7.48354 1.199143,-1.19915 2.099452,-2.58653 3.875408,-3.47451 1.319219,-0.65961 7.793206,-1.51237 8.15172,-1.87088 0.717889,-0.71789 2.432152,-1.08244 3.474504,-1.60362 1.576293,-0.78815 2.667688,-2.06884 4.142678,-2.80633 1.362976,-0.68149 2.826423,-0.81186 4.142678,-1.46998 2.205973,-1.102988 3.433303,-3.166041 5.078123,-4.810854 0.42991,-0.429911 1.35356,-0.409514 1.87088,-0.668174 1.58314,-0.791566 4.79925,-4.909677 5.34539,-6.548104 -2.33004,-0.950653 -4.24972,1.069078 -6.28083,1.069078 0.60854,-2.841268 3.44146,-3.892661 4.67722,-5.746294 0.57404,-0.861062 0.56427,-2.157976 1.33635,-2.672696 -1.45303,-0.601754 -2.68856,-1.213284 -3.87541,-2.004521 -0.99858,0.159452 -2.5597,0.304935 -3.0736,0.133635 -1.25133,-1.832054 1.89351,-6.636489 1.20271,-8.018086 -0.30068,-0.601369 -1.00405,-1.022097 -1.33635,-1.603617 -0.85044,-1.48828 -1.00899,-3.183921 -2.00452,-4.677217 -1.30345,1.467907 -2.502957,2.903862 -3.608137,4.009043 -1.038951,-4.377723 -0.928044,-8.678861 -4.276313,-12.027129 0.378817,1.944849 -1.603467,2.806031 -2.004521,3.608139 -0.521145,1.04229 -0.28958,2.205086 -0.668174,3.340869 -0.267269,-0.04454 -0.541278,-0.0592 -0.801808,-0.133635 -0.265261,-0.07579 -0.44785,-0.917371 -0.534539,-1.069078 -0.781751,-1.368063 -1.861956,-2.654832 -2.539061,-4.009043 -0.602648,-1.205297 -0.47766,-2.826206 -1.069078,-4.009043 -0.865403,-1.730805 -2.844196,-3.398036 -4.677217,-4.009043 -1.816623,2.372601 -0.746684,4.441686 0,6.681738 -2.547757,-0.331484 -4.220063,-2.978657 -6.013564,-3.875408 -0.810088,-0.405044 -2.039607,-0.836894 -2.672696,-1.469982 -0.774501,-0.774502 -3.361715,0.590933 -4.276312,0.133635 -0.529347,-0.264674 -1.952223,-0.761141 -2.672695,-0.400905 -1.063946,0.531973 -3.029208,1.202713 -4.276313,1.202713"
         style="fill:none;stroke:#000000;stroke-width:0.7;stroke-linecap:butt;stroke-linejoin:miter;stroke-miterlimit:4;stroke-dasharray:none;stroke-opacity:1" />
      <path
         inkscape:connector-curvature="0"
         id="path1004"
         d="m 60.937451,52.98292 c -1.483055,0.626052 -4.066304,-0.973629 -5.479026,-0.267269 -0.521382,0.260692 -0.559659,0.988362 -1.202711,1.202712 -1.746435,0.582146 -4.111556,-1.162442 -4.543583,0.133635 -0.207291,0.10841 0.124435,1.087482 10e-7,1.336349 -0.877489,1.754977 -7.185379,-1.19267 -8.552625,4.276312 -0.88561,0.653147 -2.815569,0.428622 -3.207234,1.603618 -0.07425,0.222742 0.154755,0.914322 0,1.069078 -1.49703,1.497029 -5.075398,3.474503 -7.082643,3.474503 2.755938,1.833024 3.763982,1.937511 4.810852,5.078122 -0.561308,0.863506 -1.009924,1.544462 -1.737252,2.27179 -0.481798,0.481799 -1.390928,0.85639 -1.737252,1.202713 -0.875143,0.875143 -1.74263,2.544439 -2.672695,3.474504 -0.392732,0.392732 0.259116,1.887194 0,2.405426 -0.48306,0.96612 -1.239758,3.219582 -2.004522,3.474504 0.04454,0.267269 0.0592,0.541278 0.133635,0.801808 0.131655,0.460792 1.194104,0.642346 1.336348,1.069079 0.474145,1.422434 -0.534539,2.749856 -0.534539,4.009042"
         style="fill:none;stroke:#000000;stroke-width:0.7;stroke-linecap:butt;stroke-linejoin:miter;stroke-miterlimit:4;stroke-dasharray:none;stroke-opacity:1" />
      <path
         inkscape:connector-curvature="0"
         id="path1006"
         d="m 28.464205,89.598845 c -1.898202,3.850966 -4.660922,7.933338 -3.207235,12.294395 1.106414,0.14303 1.343445,-0.36109 2.004522,-0.8018 -0.338626,4.24021 -2.59695,4.10264 -1.202713,8.28535 0.917134,-0.21283 1.519767,-0.23932 2.405426,-0.53454 -0.222725,0.31182 -0.482081,0.60048 -0.668174,0.93545 -0.618671,1.11361 0.313522,3.42312 0,4.67721 -0.280981,1.12393 -1.282078,1.97535 -1.603617,2.93997 1.814286,-0.49829 3.698746,-0.26727 5.61266,-0.26727 0.757039,1.37309 -1.921968,2.97144 -1.336348,4.14268 0.619767,1.23953 1.916084,-0.40287 0.801809,2.93996 -0.976239,1.64335 0.226792,1.6563 0.668174,2.53906 0.305573,0.61115 -0.400905,1.18293 -0.400905,1.73725 0.348447,2.29855 3.226466,2.19552 4.944487,3.34087"
         style="fill:none;stroke:#000000;stroke-width:0.7;stroke-linecap:butt;stroke-linejoin:miter;stroke-miterlimit:4;stroke-dasharray:none;stroke-opacity:1" />
      <path
         inkscape:connector-curvature="0"
         id="path1008"
         d="m 83.655362,85.322533 c 1.124646,-2.348568 -1.33635,-4.658902 -1.33635,-6.548104 0,-0.379695 0.663004,-1.122968 0.80181,-1.469982 0.981477,-2.453696 -2.177373,-2.649091 -3.875408,-3.073599"
         style="fill:none;stroke:#000000;stroke-width:0.7;stroke-linecap:butt;stroke-linejoin:miter;stroke-miterlimit:4;stroke-dasharray:none;stroke-opacity:1" />
      <path
         inkscape:connector-curvature="0"
         id="path1010"
         d="m 71.494599,74.631753 c -4.665477,-1.747555 -6.664338,0.215066 -8.018087,4.276312"
         style="fill:none;stroke:#000000;stroke-width:0.7;stroke-linecap:butt;stroke-linejoin:miter;stroke-miterlimit:4;stroke-dasharray:none;stroke-opacity:1" />
      <path
         inkscape:connector-curvature="0"
         id="path1012"
         d="m 82.586284,102.16051 c 4.40323,-4.844941 7.140559,-2.42548 10.69078,-7.750812"
         style="fill:none;stroke:#000000;stroke-width:0.7;stroke-linecap:butt;stroke-linejoin:miter;stroke-miterlimit:4;stroke-dasharray:none;stroke-opacity:1" />
      <path
         inkscape:connector-curvature="0"
         id="path1014"
         d="m 68.554634,114.58855 c 0.348009,-3.39615 4.341571,-3.86918 5.078121,-6.81538"
         style="fill:none;stroke:#000000;stroke-width:0.7;stroke-linecap:butt;stroke-linejoin:miter;stroke-miterlimit:4;stroke-dasharray:none;stroke-opacity:1" />
      <path
         inkscape:connector-curvature="0"
         id="path1016"
         d="m 47.841246,89.331577 c -0.536398,1.248997 -2.003647,1.868699 -2.539061,3.207234 -0.381846,0.954614 0.402762,2.010092 0.668174,2.806329 0.46605,1.398157 0,3.69751 0,5.21175"
         style="fill:none;stroke:#000000;stroke-width:0.7;stroke-linecap:butt;stroke-linejoin:miter;stroke-miterlimit:4;stroke-dasharray:none;stroke-opacity:1" />
      <path
         inkscape:connector-curvature="0"
         id="path1018"
         d="m 98.488819,80.244412 c 0.469053,-1.696342 2.049961,-4.208161 0.935445,-5.879931 -0.547973,-0.82196 -1.19244,-1.17189 -1.469983,-2.00452"
         style="fill:none;stroke:#000000;stroke-width:0.7;stroke-linecap:butt;stroke-linejoin:miter;stroke-miterlimit:4;stroke-dasharray:none;stroke-opacity:1" />
      <path
         inkscape:connector-curvature="0"
         id="path1020"
         d="m 45.70309,159.89073 c -0.315902,-3.17551 -0.6824,-5.98231 -1.870887,-8.95353"
         style="fill:none;stroke:#000000;stroke-width:0.7;stroke-linecap:butt;stroke-linejoin:miter;stroke-miterlimit:4;stroke-dasharray:none;stroke-opacity:1" />
      <path
         inkscape:connector-curvature="0"
         id="path1022"
         d="m 62.602305,124.40662 4.393975,-1.70089"
         style="fill:none;stroke:#000000;stroke-width:0.7;stroke-linecap:butt;stroke-linejoin:miter;stroke-miterlimit:4;stroke-dasharray:none;stroke-opacity:1" />
      <path
         inkscape:connector-curvature="0"
         id="path1024"
         d="m 64.066964,121.85528 4.488466,-1.03943"
         style="fill:none;stroke:#000000;stroke-width:0.7;stroke-linecap:butt;stroke-linejoin:miter;stroke-miterlimit:4;stroke-dasharray:none;stroke-opacity:1" />
      <path
         inkscape:connector-curvature="0"
         id="path1026"
         d="m 66.550111,119.26576 3.564471,-0.67052"
         style="fill:none;stroke:#000000;stroke-width:0.7;stroke-linecap:butt;stroke-linejoin:miter;stroke-miterlimit:4;stroke-dasharray:none;stroke-opacity:1" />
      <path
         inkscape:connector-curvature="0"
         id="path1028"
         d="m 67.941218,117.17783 4.157739,-0.0945"
         style="fill:none;stroke:#000000;stroke-width:0.7;stroke-linecap:butt;stroke-linejoin:miter;stroke-miterlimit:4;stroke-dasharray:none;stroke-opacity:1" />
      <path
         inkscape:connector-curvature="0"
         id="path1030"
         d="m 69.972843,115.76041 4.866441,-0.14174"
         style="fill:none;stroke:#000000;stroke-width:0.7;stroke-linecap:butt;stroke-linejoin:miter;stroke-miterlimit:4;stroke-dasharray:none;stroke-opacity:1" />
      <path
         inkscape:connector-curvature="0"
         id="path1032"
         d="m 71.012277,114.39025 c 0.238789,0 0.129225,-0.0199 0.330729,0.0473"
         style="fill:none;stroke:#000000;stroke-width:0.7;stroke-linecap:butt;stroke-linejoin:miter;stroke-miterlimit:4;stroke-dasharray:none;stroke-opacity:1" />
      <path
         inkscape:connector-curvature="0"
         id="path1034"
         d="m 76.209447,114.72098 -4.866441,-0.28343"
         style="fill:none;stroke:#000000;stroke-width:0.7;stroke-linecap:butt;stroke-linejoin:miter;stroke-miterlimit:4;stroke-dasharray:none;stroke-opacity:1" />
      <path
         inkscape:connector-curvature="0"
         id="path1036"
         d="m 72.618676,113.30357 5.953125,0.23624"
         style="fill:none;stroke:#000000;stroke-width:0.7;stroke-linecap:butt;stroke-linejoin:miter;stroke-miterlimit:4;stroke-dasharray:none;stroke-opacity:1" />
      <path
         inkscape:connector-curvature="0"
         id="path1038"
         d="m 74.036086,112.07515 c 0.110244,0.0315 0.220485,0.063 0.330729,0.0945"
         style="fill:none;stroke:#000000;stroke-width:0.7;stroke-linecap:butt;stroke-linejoin:miter;stroke-miterlimit:4;stroke-dasharray:none;stroke-opacity:1" />
      <path
         inkscape:connector-curvature="0"
         id="path1040"
         d="m 80.745162,112.35863 -6.709076,-0.28348"
         style="fill:none;stroke:#000000;stroke-width:0.7;stroke-linecap:butt;stroke-linejoin:miter;stroke-miterlimit:4;stroke-dasharray:none;stroke-opacity:1" />
      <path
         inkscape:connector-curvature="0"
         id="path1042"
         d="m 75.547989,110.94122 6.756326,0.42522"
         style="fill:none;stroke:#000000;stroke-width:0.7;stroke-linecap:butt;stroke-linejoin:miter;stroke-miterlimit:4;stroke-dasharray:none;stroke-opacity:1" />
      <path
         inkscape:connector-curvature="0"
         id="path1044"
         d="m 76.303943,110.09077 8.835192,0.33073"
         style="fill:none;stroke:#000000;stroke-width:0.7;stroke-linecap:butt;stroke-linejoin:miter;stroke-miterlimit:4;stroke-dasharray:none;stroke-opacity:1" />
      <path
         inkscape:connector-curvature="0"
         id="path1046"
         d="m 77.012648,109.09858 10.77232,0.51972"
         style="fill:none;stroke:#000000;stroke-width:0.7;stroke-linecap:butt;stroke-linejoin:miter;stroke-miterlimit:4;stroke-dasharray:none;stroke-opacity:1" />
      <path
         inkscape:connector-curvature="0"
         id="path1048"
         d="m 79.563988,108.15364 10.63058,0.56697"
         style="fill:none;stroke:#000000;stroke-width:0.7;stroke-linecap:butt;stroke-linejoin:miter;stroke-miterlimit:4;stroke-dasharray:none;stroke-opacity:1" />
      <path
         inkscape:connector-curvature="0"
         id="path1050"
         d="m 84.194197,107.25595 7.181545,0.61421"
         style="fill:none;stroke:#000000;stroke-width:0.7;stroke-linecap:butt;stroke-linejoin:miter;stroke-miterlimit:4;stroke-dasharray:none;stroke-opacity:1" />
      <path
         sodipodi:nodetypes="cc"
         inkscape:connector-curvature="0"
         id="path1058"
         d="m 85.611606,106.78348 6.000371,0.37797"
         style="fill:none;stroke:#000000;stroke-width:0.7;stroke-linecap:butt;stroke-linejoin:miter;stroke-miterlimit:4;stroke-dasharray:none;stroke-opacity:1" />
      <path
         inkscape:connector-curvature="0"
         id="path1060"
         d="m 64.066964,121.85528 1.55915,2.22061 m -0.425221,-3.02381 1.559152,2.5041 m -0.209934,-4.29042 1.202121,2.873 m 0.188986,-4.96093 1.181178,2.36235 m 0.850447,-3.77977 0.803199,2.4096 m 0.566964,-3.73246 0.992188,2.55129 m 0.283482,-3.68527 1.370163,2.64583 m 0.377976,-3.77975 1.133929,2.88206 m 0.04725,-4.11049 c 0.170783,0.34156 0.11612,0.18099 0.18899,0.47247 m 0.472463,3.30729 -1.181173,-3.35454 m 1.275669,-1.27567 1.181176,3.82701"
         style="fill:none;stroke:#000000;stroke-width:0.7;stroke-linecap:butt;stroke-linejoin:miter;stroke-miterlimit:4;stroke-dasharray:none;stroke-opacity:1" />
      <path
         inkscape:connector-curvature="0"
         id="path1062"
         d="m 77.012648,109.09858 1.748139,4.48847"
         style="fill:none;stroke:#000000;stroke-width:0.7;stroke-linecap:butt;stroke-linejoin:miter;stroke-miterlimit:4;stroke-dasharray:none;stroke-opacity:1" />
      <path
         inkscape:connector-curvature="0"
         id="path1064"
         d="m 79.563988,108.15364 1.41741,4.016"
         style="fill:none;stroke:#000000;stroke-width:0.7;stroke-linecap:butt;stroke-linejoin:miter;stroke-miterlimit:4;stroke-dasharray:none;stroke-opacity:1" />
      <path
         inkscape:connector-curvature="0"
         id="path1066"
         d="m 78.146576,108.62611 1.653645,4.29948"
         style="fill:none;stroke:#000000;stroke-width:0.7;stroke-linecap:butt;stroke-linejoin:miter;stroke-miterlimit:4;stroke-dasharray:none;stroke-opacity:1" />
      <path
         inkscape:connector-curvature="0"
         id="path1068"
         d="m 80.981398,107.68117 1.559153,3.96875"
         style="fill:none;stroke:#000000;stroke-width:0.7;stroke-linecap:butt;stroke-linejoin:miter;stroke-miterlimit:4;stroke-dasharray:none;stroke-opacity:1" />
      <path
         inkscape:connector-curvature="0"
         id="path1070"
         d="m 83.01302,107.11421 1.181177,3.44903"
         style="fill:none;stroke:#000000;stroke-width:0.7;stroke-linecap:butt;stroke-linejoin:miter;stroke-miterlimit:4;stroke-dasharray:none;stroke-opacity:1" />
      <path
         inkscape:connector-curvature="0"
         id="path1072"
         d="m 84.194197,107.25595 1.322916,3.2128"
         style="fill:none;stroke:#000000;stroke-width:0.7;stroke-linecap:butt;stroke-linejoin:miter;stroke-miterlimit:4;stroke-dasharray:none;stroke-opacity:1" />
      <path
         inkscape:connector-curvature="0"
         id="path1074"
         d="m 85.611604,106.78348 1.228426,3.2128"
         style="fill:none;stroke:#000000;stroke-width:0.7;stroke-linecap:butt;stroke-linejoin:miter;stroke-miterlimit:4;stroke-dasharray:none;stroke-opacity:1" />
      <path
         inkscape:connector-curvature="0"
         id="path1076"
         d="m 86.84003,106.5 1.228421,2.78757"
         style="fill:none;stroke:#000000;stroke-width:0.7;stroke-linecap:butt;stroke-linejoin:miter;stroke-miterlimit:4;stroke-dasharray:none;stroke-opacity:1" />
      <path
         inkscape:connector-curvature="0"
         id="path1078"
         d="m 88.446426,106.5 0.708708,2.07887"
         style="fill:none;stroke:#000000;stroke-width:0.7;stroke-linecap:butt;stroke-linejoin:miter;stroke-miterlimit:4;stroke-dasharray:none;stroke-opacity:1" />
      <path
         inkscape:connector-curvature="0"
         id="path1080"
         d="m 89.816592,106.78348 0.519716,1.6064"
         style="fill:none;stroke:#000000;stroke-width:0.7;stroke-linecap:butt;stroke-linejoin:miter;stroke-miterlimit:4;stroke-dasharray:none;stroke-opacity:1" />
      <path
         inkscape:connector-curvature="0"
         id="path1082"
         d="m 61.184895,126.76897 3.874257,-1.5119"
         style="fill:none;stroke:#000000;stroke-width:0.7;stroke-linecap:butt;stroke-linejoin:miter;stroke-miterlimit:4;stroke-dasharray:none;stroke-opacity:1" />
      <path
         inkscape:connector-curvature="0"
         id="path1084"
         d="m 60.665177,128.04464 2.976562,-1.27567"
         style="fill:none;stroke:#000000;stroke-width:0.7;stroke-linecap:butt;stroke-linejoin:miter;stroke-miterlimit:4;stroke-dasharray:none;stroke-opacity:1" />
      <path
         inkscape:connector-curvature="0"
         id="path1086"
         d="m 59.909225,129.22582 2.315104,-1.03944"
         style="fill:none;stroke:#000000;stroke-width:0.7;stroke-linecap:butt;stroke-linejoin:miter;stroke-miterlimit:4;stroke-dasharray:none;stroke-opacity:1" />
      <path
         inkscape:connector-curvature="0"
         id="path1090"
         d="m 59.625743,130.35975 1.181176,-0.61422"
         style="fill:none;stroke:#000000;stroke-width:0.7;stroke-linecap:butt;stroke-linejoin:miter;stroke-miterlimit:4;stroke-dasharray:none;stroke-opacity:1" />
      <path
         inkscape:connector-curvature="0"
         id="path1092"
         d="m 59.011531,131.39918 0.614212,-1.03943"
         style="fill:none;stroke:#000000;stroke-width:0.7;stroke-linecap:butt;stroke-linejoin:miter;stroke-miterlimit:4;stroke-dasharray:none;stroke-opacity:1" />
      <path
         inkscape:connector-curvature="0"
         id="path1094"
         d="m 63.830728,122.84747 1.228424,2.4096"
         style="fill:none;stroke:#000000;stroke-width:0.7;stroke-linecap:butt;stroke-linejoin:miter;stroke-miterlimit:4;stroke-dasharray:none;stroke-opacity:1" />
      <path
         inkscape:connector-curvature="0"
         id="path1096"
         d="m 62.602305,124.40662 1.039434,2.36235"
         style="fill:none;stroke:#000000;stroke-width:0.7;stroke-linecap:butt;stroke-linejoin:miter;stroke-miterlimit:4;stroke-dasharray:none;stroke-opacity:1" />
      <path
         inkscape:connector-curvature="0"
         id="path1098"
         d="m 61.704613,125.82403 0.519716,2.36235"
         style="fill:none;stroke:#000000;stroke-width:0.7;stroke-linecap:butt;stroke-linejoin:miter;stroke-miterlimit:4;stroke-dasharray:none;stroke-opacity:1" />
      <path
         inkscape:connector-curvature="0"
         id="path1100"
         d="m 60.665177,128.04464 0.519718,0.8032"
         style="fill:none;stroke:#000000;stroke-width:0.7;stroke-linecap:butt;stroke-linejoin:miter;stroke-miterlimit:4;stroke-dasharray:none;stroke-opacity:1" />
      <path
         inkscape:connector-curvature="0"
         id="path1102"
         d="m 59.909225,129.22582 0.897694,0.51971"
         style="fill:none;stroke:#000000;stroke-width:0.7;stroke-linecap:butt;stroke-linejoin:miter;stroke-miterlimit:4;stroke-dasharray:none;stroke-opacity:1" />
      <path
         inkscape:connector-curvature="0"
         id="path1104"
         d="m 59.909225,129.22582 -0.283482,1.13393"
         style="fill:none;stroke:#000000;stroke-width:0.7;stroke-linecap:butt;stroke-linejoin:miter;stroke-miterlimit:4;stroke-dasharray:none;stroke-opacity:1" />
      <path
         inkscape:connector-curvature="0"
         id="path940"
         d="m 131.78251,211.45382 c -0.0242,-0.0935 1.5253,-0.17938 0,0"
         style="fill:none;stroke:#000000;stroke-width:0.7;stroke-linecap:butt;stroke-linejoin:miter;stroke-miterlimit:4;stroke-dasharray:none;stroke-opacity:1" />
      <path
         inkscape:connector-curvature="0"
         id="path1405"
         d="m 192.67336,123.22544 c 2.46827,-1.96877 5.62282,-1.74813 8.83519,-1.74813"
         style="fill:none;stroke:#000000;stroke-width:0.7;stroke-linecap:butt;stroke-linejoin:miter;stroke-miterlimit:4;stroke-dasharray:none;stroke-opacity:1" />
      <path
         inkscape:connector-curvature="0"
         id="path1407"
         d="m 192.0119,121.52455 c 0.79995,-0.0201 1.4349,-0.59933 2.12612,-0.94494 0.89994,-0.44997 1.98362,-0.89744 2.97656,-1.22842 0.74429,-0.2481 1.34923,-1.17071 2.03162,-1.51191 0.92267,-0.46133 1.81512,-0.98959 2.74033,-1.60639"
         style="fill:none;stroke:#000000;stroke-width:0.7;stroke-linecap:butt;stroke-linejoin:miter;stroke-miterlimit:4;stroke-dasharray:none;stroke-opacity:1" />
      <path
         inkscape:connector-curvature="0"
         id="path1409"
         d="m 191.72842,119.35119 c 2.21046,-0.85709 4.91369,-5.78008 4.91369,-7.98475"
         style="fill:none;stroke:#000000;stroke-width:0.7;stroke-linecap:butt;stroke-linejoin:miter;stroke-miterlimit:4;stroke-dasharray:none;stroke-opacity:1" />
      <path
         inkscape:connector-curvature="0"
         id="path1434"
         d="m 189.27157,133.4308 c 0.27827,-0.69756 0.88654,-1.11161 1.13393,-1.6064 0.0803,-0.16061 0.39756,-0.59189 0.33073,-0.42522 -0.0275,0.0685 -0.0708,0.12959 -0.10624,0.19439"
         style="fill:none;stroke:#000000;stroke-width:0.7;stroke-linecap:butt;stroke-linejoin:miter;stroke-miterlimit:4;stroke-dasharray:none;stroke-opacity:1" />
      <path
         transform="scale(0.26458333)"
         inkscape:connector-curvature="0"
         id="path1462"
         d="m 497.2371,786.86435 c -1.15038,-1.35424 -2.72304,-3.19031 -3.4948,-4.08017 l -1.4032,-1.61792 3.78807,0.1453 c 5.67708,0.21777 5.79493,0.26382 8.44949,3.30195 l 2.21904,2.53968 -2.17754,0.55523 c -1.19764,0.30537 -2.77836,0.79439 -3.51271,1.0867 -0.73434,0.29231 -1.43453,0.53147 -1.55596,0.53147 -0.12144,0 -1.16201,-1.10801 -2.31239,-2.46224 z"
         style="opacity:1;fill:#ffffff;fill-opacity:1;stroke:#ffffff;stroke-width:0.47723743;stroke-linecap:butt;stroke-linejoin:miter;stroke-miterlimit:4;stroke-dasharray:none;stroke-dashoffset:0;stroke-opacity:1" />
      <path
         transform="scale(0.26458333)"
         inkscape:connector-curvature="0"
         id="path1464"
         d="m 516.45649,773.84402 c -6.2798,-6.19441 -10.51395,-9.96573 -12.12183,-10.7968 -0.76393,-0.39485 -1.24438,-0.72338 -1.06768,-0.73006 0.84555,-0.032 8.14877,4.02953 12.81071,7.12435 4.92143,3.26708 7.19733,5.21885 7.19733,6.17228 0,0.61064 -1.62376,2.60522 -2.11282,2.59534 -0.15746,-0.003 -2.27503,-1.96748 -4.70571,-4.36511 z"
         style="opacity:1;fill:#ffffff;fill-opacity:1;stroke:#ffffff;stroke-width:0.47723743;stroke-linecap:butt;stroke-linejoin:miter;stroke-miterlimit:4;stroke-dasharray:none;stroke-dashoffset:0;stroke-opacity:1" />
      <path
         transform="scale(0.26458333)"
         inkscape:connector-curvature="0"
         id="path1466"
         d="m 522.70292,780.04624 c -0.0535,-0.1044 0.3813,-0.61883 0.96631,-1.14318 l 1.06366,-0.95334 0.54402,0.92204 c 0.29921,0.50712 0.51099,0.94875 0.47062,0.9814 -0.22131,0.179 -2.96267,0.35285 -3.04461,0.19308 z"
         style="opacity:1;fill:#000000;fill-opacity:1;stroke:#000000;stroke-width:0.47723743;stroke-linecap:butt;stroke-linejoin:miter;stroke-miterlimit:4;stroke-dasharray:none;stroke-dashoffset:0;stroke-opacity:1" />
      <path
         transform="scale(0.26458333)"
         inkscape:connector-curvature="0"
         id="path1468"
         d="m 544.29882,812.29969 c -0.31251,-0.12561 -0.56821,-0.27278 -0.56821,-0.32704 0,-0.14404 2.81418,-1.98951 2.88687,-1.89314 0.1013,0.1343 0.9012,2.22853 0.9012,2.35943 0,0.21208 -2.62861,0.0984 -3.21986,-0.13925 z"
         style="opacity:1;fill:#000000;fill-opacity:1;stroke:#000000;stroke-width:1.13385832;stroke-linecap:butt;stroke-linejoin:miter;stroke-miterlimit:4;stroke-dasharray:none;stroke-dashoffset:0;stroke-opacity:1" />
      <path
         transform="scale(0.26458333)"
         inkscape:connector-curvature="0"
         id="path1470"
         d="m 540.71851,825.06358 c -2.32464,-1.09529 -2.76663,-1.38434 -2.27284,-1.48641 2.56599,-0.53041 4.50723,-1.03938 5.09554,-1.33599 l 0.69448,-0.35014 -0.003,1.71112 c -0.004,1.75642 -0.18536,2.85767 -0.46795,2.83433 -0.088,-0.007 -1.45857,-0.62507 -3.04578,-1.37291 z"
         style="opacity:1;fill:#000000;fill-opacity:1;stroke:#000000;stroke-width:1.13385832;stroke-linecap:butt;stroke-linejoin:miter;stroke-miterlimit:4;stroke-dasharray:none;stroke-dashoffset:0;stroke-opacity:1" />
      <path
         transform="scale(0.26458333)"
         inkscape:connector-curvature="0"
         id="path1472"
         d="m 528.77379,832.56528 c -1.4898,-1.0553 -2.68304,-1.93814 -2.65165,-1.96186 0.0314,-0.0237 1.21056,-0.11024 2.62037,-0.19228 l 2.56331,-0.14917 0.17905,2.02273 c 0.0985,1.1125 0.13823,2.06245 0.0883,2.11101 -0.0499,0.0486 -1.30963,-0.77513 -2.79943,-1.83043 z"
         style="opacity:1;fill:#000000;fill-opacity:1;stroke:#000000;stroke-width:1.13385832;stroke-linecap:butt;stroke-linejoin:miter;stroke-miterlimit:4;stroke-dasharray:none;stroke-dashoffset:0;stroke-opacity:1" />
      <path
         transform="scale(0.26458333)"
         inkscape:connector-curvature="0"
         id="path1474"
         d="m 514.4768,829.31516 -0.84327,-0.66448 0.77223,-0.48893 c 0.42472,-0.26892 0.88943,-0.41651 1.03267,-0.32798 0.29611,0.18301 0.36124,2.15295 0.071,2.14866 -0.10417,-0.002 -0.56887,-0.30181 -1.03267,-0.66727 z"
         style="opacity:1;fill:#000000;fill-opacity:1;stroke:#000000;stroke-width:1.13385832;stroke-linecap:butt;stroke-linejoin:miter;stroke-miterlimit:4;stroke-dasharray:none;stroke-dashoffset:0;stroke-opacity:1" />
      <path
         transform="scale(0.26458333)"
         inkscape:connector-curvature="0"
         id="path1476"
         d="m 651.35751,520.14407 c -2.4247,-1.66669 -6.24922,-3.36214 -8.74654,-3.87744 -1.30083,-0.26841 -2.62083,-0.48951 -2.93334,-0.49134 -0.5528,-0.003 -0.56821,-0.0749 -0.56821,-2.64253 0,-4.60842 0.88242,-7.15127 3.29092,-9.48332 1.53747,-1.48867 5.80455,-4.05278 9.20918,-5.53384 1.81537,-0.78972 2.23909,-0.87631 4.16741,-0.85166 1.18062,0.0151 2.65797,0.19687 3.283,0.40394 l 1.13642,0.37649 -1.11034,0.025 -1.11035,0.025 0.15641,1.8309 c 0.1995,2.33518 0.57844,3.59962 2.7183,9.07016 0.9598,2.45374 1.74509,4.57188 1.74509,4.70698 0,0.13511 -0.37686,0.31635 -0.83747,0.40276 -1.10498,0.20729 -2.42957,1.11639 -5.13817,3.52645 -1.22752,1.09222 -2.6296,2.29964 -3.11573,2.68316 l -0.88388,0.6973 z"
         style="opacity:1;fill:#000000;fill-opacity:1;stroke:#000000;stroke-width:1.13385832;stroke-linecap:butt;stroke-linejoin:miter;stroke-miterlimit:4;stroke-dasharray:none;stroke-dashoffset:0;stroke-opacity:1" />
      <path
         transform="scale(0.26458333)"
         inkscape:connector-curvature="0"
         id="path1480"
         d="m 664.23104,428.15856 c -3.108,-0.49183 -5.98797,-1.81284 -7.91884,-3.6323 -1.19851,-1.12937 -2.95887,-3.91489 -3.15544,-4.99308 l -0.16511,-0.90564 1.45578,0.71058 c 1.4022,0.68444 2.82872,0.88882 4.00298,0.57353 0.479,-0.12861 0.52492,-0.31866 0.50508,-2.09023 -0.0168,-1.49994 0.0862,-2.11385 0.44725,-2.66553 0.44586,-0.6813 0.53646,-0.70891 1.8309,-0.55797 4.51068,0.52598 4.07327,0.54857 5.09441,-0.26312 0.51665,-0.41068 1.07409,-0.82686 1.23875,-0.92484 0.30385,-0.1808 1.72926,0.51361 2.82744,1.37744 0.3317,0.26092 0.86054,0.4744 1.17519,0.4744 0.47866,0 0.62216,0.20865 0.87856,1.27746 0.31495,1.31283 1.30358,2.76315 1.88356,2.76315 0.17983,0 0.73983,-0.45699 1.24444,-1.01554 l 0.91748,-1.01553 0.26048,0.68511 c 0.35807,0.9418 0.14354,7.731 -0.29212,9.24441 l -0.34722,1.20619 -1.1406,-0.19432 c -0.62733,-0.10688 -1.59517,-0.17449 -2.15075,-0.15025 -5.66401,0.24711 -7.50757,0.26772 -8.59222,0.0961 z"
         style="opacity:1;fill:#000000;fill-opacity:1;stroke:#000000;stroke-width:1.13385832;stroke-linecap:butt;stroke-linejoin:miter;stroke-miterlimit:4;stroke-dasharray:none;stroke-dashoffset:0;stroke-opacity:1" />
      <path
         transform="scale(0.26458333)"
         inkscape:connector-curvature="0"
         id="path1482"
         d="m 654.72469,417.12394 c -1.23346,-0.58373 -1.98316,-1.09616 -2.06574,-1.41195 -0.4273,-1.634 1.09611,-5.94216 2.61581,-7.3974 0.76034,-0.72808 0.87648,-0.75601 3.23393,-0.77757 1.3449,-0.0123 3.35441,-0.10497 4.46558,-0.20593 l 2.0203,-0.18356 3.283,1.43548 c 3.65716,1.59908 6.35709,3.26172 6.97396,4.29464 0.37857,0.63389 0.37474,0.77404 -0.0531,1.94446 -0.51689,1.41414 -0.73372,1.74012 -0.73372,1.10306 0,-0.65765 -0.93644,-2.34882 -1.39885,-2.52626 -0.22562,-0.0866 -0.57897,-0.15742 -0.78522,-0.15742 -0.20626,0 -0.74749,-0.2841 -1.20274,-0.63134 -0.45526,-0.34724 -0.93065,-0.63388 -1.05644,-0.63696 -0.12579,-0.003 -0.51281,-0.22785 -0.86005,-0.49946 -1.10193,-0.86195 -2.13187,-0.61154 -3.80434,0.92496 -0.6012,0.55232 -0.74481,0.57653 -2.00359,0.33781 -2.34236,-0.44422 -4.00141,-0.38073 -4.75644,0.18202 -1.00982,0.75266 -1.56446,1.88362 -1.76033,3.58948 l -0.17593,1.53221 z"
         style="opacity:1;fill:#ffffff;fill-opacity:1;stroke:#ffffff;stroke-width:1.13385832;stroke-linecap:butt;stroke-linejoin:miter;stroke-miterlimit:4;stroke-dasharray:none;stroke-dashoffset:0;stroke-opacity:1" />
      <path
         inkscape:connector-curvature="0"
         id="path1486"
         d="m 189.27157,133.4308 c 1.51197,0.31388 0.89333,-1.01133 1.35842,-1.83723"
         style="fill:none;stroke:#000000;stroke-width:0.26458332px;stroke-linecap:butt;stroke-linejoin:miter;stroke-opacity:1" />
      <path
         transform="scale(0.26458333)"
         inkscape:connector-curvature="0"
         id="path1488"
         d="m 716.98223,503.42518 c 0.16073,-0.27009 0.47632,-0.72044 0.7013,-1.00077 0.34863,-0.43441 0.46379,-0.48041 0.7796,-0.3114 0.78574,0.42052 -0.28552,1.80324 -1.39705,1.80324 -0.3621,0 -0.36522,-0.0183 -0.0839,-0.49107 z"
         style="opacity:1;fill:#000000;fill-opacity:1;stroke:#000000;stroke-width:1.13385832;stroke-linecap:butt;stroke-linejoin:miter;stroke-miterlimit:4;stroke-dasharray:none;stroke-dashoffset:0;stroke-opacity:1" />
    </g>
  </g>
</svg>
